<svg xmlns="http://www.w3.org/2000/svg" width="2000" height="1125" viewBox="0 0 2000 1125"><defs><clipPath id="a"><path d="M1218.9 572.53v-23a.89.89 0 0 0-.89-.89h-32a.89.89 0 0 0-.89.89v32.86l9-9H1218a.89.89 0 0 0 .9-.86zm10.36-14.86h-5.86v20.25h-29.25v5.86a.89.89 0 0 0 .89.89h26.11l9 9v-35.12a.89.89 0 0 0-.89-.89z" fill="#202b33"/></clipPath><clipPath id="b"><path fill="#202b33" d="M-655.35 436.16h2322v378h-2322z"/></clipPath></defs><title>artboard</title><g data-name="Artboard 4" style="isolation:isolate"><path fill="none" d="M1378.19 816.42l-7.38-55h-28.33v55h35.71zM1369.74 753.42l-7.38-55h-19.88v55h27.26zM1386.63 879.42l-7.37-55h-36.78v55h44.15zM1395.08 942.42l-7.37-55h-45.23v55h52.6zM1269.48 833.98v-.13h-125v143h.34V833.98h124.66zM1131.48 523.98v-.13h-125v143h.34V523.98h124.66zM857.48 523.98v-.13h-125v143h.34V523.98h124.66zM1269.48 678.98v-.13h-125v143h.34V678.98h124.66zM1269.48 523.98v-.13h-125v143h.34V523.98h124.66zM857.48 678.98v-.13h-125v143h.34V678.98h124.66zM1131.48 678.98v-.13h-125v143h.34V678.98h124.66zM994.48 523.98v-.13h-125v143h.34V523.98h124.66zM994.48 678.98v-.13h-125v143h.34V678.98h124.66zM1131.48 833.98v-.13h-125v143h.34V833.98h124.66zM994.48 833.98v-.13h-125v143h.34V833.98h124.66zM732.82 441.98h221.66v-.13h-222v30h.34v-29.87zM1342.1 526l6.05 11.73.16-.13a58.49 58.49 0 0 1 5.25 9.33l1.9-.5-12.46-37.67-1-.46zM1347.46 537.97l-5.32 1.41 2.92-.77 2.4-.64zM857.48 833.98v-.13h-125v143h.34V833.98h124.66zM986.24 379.85l-12.09 11.88c-4.24 1.28-3.66 7.14.78 7.14l31.08-3-2.17-16zM1039.37 391.74l-11.09-11.88h-17.61l-2.59 16 30.08 3a3.64 3.64 0 0 0 1.21-7.12zM1365.35 543.85l19.71-5.24-19.71 5.24zM1353.56 546.99l1.9-.5-1.9.5z"/><path fill="none" d="M869.82 833.98h124.66v142.88H869.82zM1006.82 678.98h124.66v142.88h-124.66zM869.82 523.98h124.66v142.88H869.82zM1006.82 833.98h124.66v142.88h-124.66zM869.82 678.98h124.66v142.88H869.82zM732.82 441.98h221.66v29.88H732.82zM732.82 833.98h124.66v142.88H732.82zM732.82 523.98h124.66v142.88H732.82zM732.82 678.98h124.66v142.88H732.82zM1144.82 523.98h124.66v142.88h-124.66zM1144.82 678.98h124.66v142.88h-124.66zM1144.82 833.98h124.66v142.88h-124.66zM1006.82 523.98h124.66v142.88h-124.66z"/><path d="M664.75 972.69s-.69 0-1.93.06v.25c1.22-.06 1.92-.06 2-.06zM686 1014.24a4 4 0 0 1 1.45-1.66 8.53 8.53 0 0 1 3.43-.86s-.29-13.13-3.9-15.91c-9.06-7-19.69-14.79-21.26-18.8 1 3.3 8.79 9.39 16.7 15.46zM1329.96 502.51l12.14 23.54-.06-17.75-12.08-5.79zM1302.99 549.8h.01l39.14-10.42-39.15 10.42zM1312.04 753.42h30.44v-55h-37.76l7.32 55zM1325.39 630.44l-1.44-5.05 1.9-41.03-9.38 41.86.34 2.2h8l.58 2.02z" fill="#202b33" opacity=".25" style="mix-blend-mode:hard-light"/><path fill="#202b33" opacity=".25" style="mix-blend-mode:hard-light" d="M1295.4 628.42h1.41l2.37 8h-2.72l7.19 54h.04l-.61-4.63 9.95-4.67 6.3-.64 8.29-.85 1.27 6.19 11.36-4.97 1.82-.19-1.92-4.81 2.33-.2v-1.02l-4.45.31-10.94-38.52h-9.01l-.33-2.1 6.32 39.92-1.47.14 2.06 5.55-8.87.91-2.06-5.6-3 .29-15.06-50.97 1.56-55.14h-9.69l7.86 59zM1337.22 942.42h5.26v-55h-12.59l7.33 55zM1320.43 816.42h22.05v-55h-29.37l7.32 55zM1342.48 982.44v-32.02h-4.2l4.2 32.02z"/><path d="M1325.57 1013.33a4.1 4.1 0 0 1 4.07-3.17h8.36l-58.51-440.21a4 4 0 0 1 0-.53h-6a4 4 0 0 1-3.68-2.45V667h-125v-.12h-.34v-143h125v.12h.34v39.88a4.17 4.17 0 0 1 3.83-2.44h23.8l.29-10.22 3.08-.82-3.78 1-20.03-54.12-37.44 16.35-34.31-34.52-.5.49-5.48-5.36a21.55 21.55 0 1 1 9-8.12l.25-.24 4.1 5.81 1.05-.92L1243 493.6l53.55-32.75 5.34 6.48 11.76 4.7-.09-.19 28.44 16.81-.07-21.31.57-89.48h-680v567.7s4.49-.54 6.46-.87a132.37 132.37 0 0 0 16.22-3.77c5.92-2 9.94-3.55 12.53-4.68a59.45 59.45 0 0 0 7.32-3.81s10.71-8.57 12.42-6.85c1.4 1.4 1.07 10-9.68 16.11L703 936.1l4.74 5.6a49.58 49.58 0 0 1-10.08 4c-3.68 1-9.21 2.78-12.75 4a14.3 14.3 0 0 0-3.13 1.5s.49.37 1.46 3.8a32.1 32.1 0 0 1 .81 9 31.36 31.36 0 0 0 .69 6.19 31 31 0 0 0 4.83 10.65c5.14 7.71 7.71 14.13 8.57 23.56.73 8.07.84 13 .85 13.77l629.32-.17a4 4 0 0 1-2.74-4.67zm-43.3-559.53a5.94 5.94 0 0 1-.29-3.24 5.93 5.93 0 0 0 .51 3.59zm.71-14.2a3.15 3.15 0 0 1 3.2 3.29 2.62 2.62 0 0 1 0 .48 2.45 2.45 0 0 0 0-.35 3.15 3.15 0 0 0-3.2-3.29 3.36 3.36 0 0 0-3.17 2.78 3.36 3.36 0 0 1 3.19-2.9zm-272.31-59.75h17.61l11.09 11.88a3.64 3.64 0 0 1-1.21 7.14l-30.08-3zm-278.19 62h222v.15h.34v30h-222v-.12h-.34zM857.82 977h-125v-.12h-.34v-143h125v.12h.34zm0-155h-125v-.12h-.34v-143h125v.12h.34zm0-155h-125v-.12h-.34v-143h125v.12h.34zm137 310h-125v-.12h-.34v-143h125v.12h.34zm0-155h-125v-.12h-.34v-143h125v.12h.34zm0-155h-125v-.12h-.34v-143h125v.12h.34zm-19.89-268.1c-4.44 0-5-5.86-.78-7.14l12.09-11.88h17.61l2.17 16zM1131.82 977h-125v-.12h-.34v-143h125v.12h.34zm0-155h-125v-.12h-.34v-143h125v.12h.34zm0-155h-125v-.12h-.34v-143h125v.12h.34zm138 310h-125v-.12h-.34v-143h125v.12h.34zm0-155h-125v-.12h-.34v-143h125v.12h.34z" fill="#202b33" opacity=".3" style="mix-blend-mode:hard-light"/><path fill="#202b33" opacity=".25" style="mix-blend-mode:hard-light" d="M1328.83 879.42h13.65v-55h-20.98l7.33 55zM1283 439.73a3.15 3.15 0 0 1 3.2 3.29 2.45 2.45 0 0 1 0 .35 2.62 2.62 0 0 0 0-.48 3.15 3.15 0 0 0-3.2-3.29 3.36 3.36 0 0 0-3.19 2.91 3.36 3.36 0 0 1 3.19-2.78z"/><path d="M1283 439.73a3.15 3.15 0 0 1 3.2 3.29 2.45 2.45 0 0 1 0 .35 2.62 2.62 0 0 0 0-.48 3.15 3.15 0 0 0-3.2-3.29 3.36 3.36 0 0 0-3.19 2.91 3.36 3.36 0 0 1 3.19-2.78zM1282 450.57a5.94 5.94 0 0 0 .29 3.24l.22.36a5.93 5.93 0 0 1-.51-3.6z" fill="#202b33" opacity=".25" style="mix-blend-mode:hard-light"/><path d="M1282 450.57a5.94 5.94 0 0 0 .29 3.24l.22.36a5.93 5.93 0 0 1-.51-3.6zM677.45 1012.17a58.22 58.22 0 0 0-.86-8.64c-.86-5.14-3-8.14-12.42-15a8.25 8.25 0 0 0-1.69-1v30.66h9.4c-.43-4.19 5.57-6.02 5.57-6.02zM699 1018.19c0 .1 0 .1 0 0z" fill="#202b33" opacity=".25" style="mix-blend-mode:hard-light"/><path d="M671.88 1018.19H699h-27.12s0-.01 0 0zM1193.01 466.52v-8.64h8.64v-6.05h-8.64v-8.65h-6.05v8.65h-8.65v6.05h8.65v8.64h6.05zM994.48 976.85H869.82v.13h125v-143h-.34v142.87zM1131.48 821.85h-124.66v.13h125v-143h-.34v142.87zM994.48 666.85H869.82v.13h125v-143h-.34v142.87zM1131.48 976.85h-124.66v.13h125v-143h-.34v142.87zM994.48 821.85H869.82v.13h125v-143h-.34v142.87zM732.82 471.85v.13h222v-30h-.34v29.87H732.82zM857.48 976.85H732.82v.13h125v-143h-.34v142.87zM857.48 666.85H732.82v.13h125v-143h-.34v142.87zM857.48 821.85H732.82v.13h125v-143h-.34v142.87zM1269.48 524v142.85h-124.66v.15h125V567a4 4 0 0 1-.23-2.38 3.69 3.69 0 0 1 .23-.73V524zM1269.48 821.85h-124.66v.13h125v-143h-.34v142.87zM1269.48 976.85h-124.66v.13h125v-143h-.34v142.87zM1131.48 666.85h-124.66v.13h125v-143h-.34v142.87z" fill="#202b33" opacity=".25" style="mix-blend-mode:hard-light"/><path fill="#fff" d="M1342.99 549.8l-.17.04v.01l.17-.05z"/><path fill="#202b33" opacity=".62" style="mix-blend-mode:hard-light" d="M1327.09 636.42l-1.7-5.98 1.7 5.98zM1316.81 628.42l.94 5.9-.94-5.9zM1297.23 569.42l.23-8-.23 8z"/><path d="M1269.82 567v-3.11a3.69 3.69 0 0 0-.23.73 4 4 0 0 0 .23 2.38z" fill="#202b33" opacity=".25" style="mix-blend-mode:hard-light"/><path d="M1269.82 567v-3.11a3.69 3.69 0 0 0-.23.73 4 4 0 0 0 .23 2.38z" fill="#202b33" opacity=".62" style="mix-blend-mode:hard-light"/><path fill="#fff" opacity=".86" style="mix-blend-mode:hard-light" d="M733.48 441.85h222v30h-222z"/><path fill="#202b33" opacity=".33" style="mix-blend-mode:hard-light" d="M955.48 441.85h33v30h-33z"/><path fill="#202b33" opacity=".52" style="mix-blend-mode:hard-light" d="M1186.96 466.52h6.05v-8.64h8.64v-6.05h-8.64v-8.65h-6.05v8.65h-8.65v6.05h8.65v8.64zM1270.48 462c-6.28-2.35-11.06-8.63-11.64-16.35a20.45 20.45 0 0 1 .06-3.74h-51.82a21.37 21.37 0 0 1 1.19 24.26l.25-.24 4.1 5.81 1.05-.92 1.4 1.09h55.41zM1168.48 454.85a21.38 21.38 0 0 1 4.4-13h-6.4v30h10.37a21.44 21.44 0 0 1-8.37-17z"/><path fill="#fff" opacity=".86" style="mix-blend-mode:hard-light" d="M798.81 888.49h8.46v7.4h-8.46z"/><path d="M732.82 834.1v143h125v-143zm36.77 54l25.73-25.37 12.06 12.23v-6.17h7.4v12.41l5.73 6.88a.24.24 0 0 1-.19.4h-5.54v17a.24.24 0 0 1-.24.24h-24.41v-12.3h-7.4v12.33h-7.15a.24.24 0 0 1-.24-.24v-17h-5.56a.24.24 0 0 1-.19-.43zm-5.06 35.59h61v7h-61zm77 29h-92v-7h92z" fill="#fff" opacity=".86" style="mix-blend-mode:hard-light"/><ellipse cx="1075.97" cy="867.79" rx="2.19" ry="2.18" fill="#fff" opacity=".86" style="mix-blend-mode:hard-light"/><path d="M1084.73 870a2.18 2.18 0 1 0-2.19-2.18 2.2 2.2 0 0 0 2.19 2.18z" fill="#fff" opacity=".86" style="mix-blend-mode:hard-light"/><path d="M1006.48 834.1v143h125v-143zm41 27.92a.79.79 0 0 1 .79-.79h42.2a.79.79 0 0 1 .79.79v42.2c0 .44-.35 2-.79 2h-42.2c-.44 0-.79-1.57-.79-2zm-9.32 61.64h61v7h-61zm77 29h-92v-7h92z" fill="#fff" opacity=".86" style="mix-blend-mode:hard-light"/><path d="M1067.49 878v2.18a7.64 7.64 0 0 0-1.95.82l-1.54-1.6-2.7 2.7 1.55 1.55a7.64 7.64 0 0 0-.82 1.95h-2.18v3.82h2.15a7.27 7.27 0 0 0 .81 1.95l-1.55 1.55 2.7 2.7 1.55-1.55a7.64 7.64 0 0 0 1.95.82v2.18h3.82v-2.18a7.64 7.64 0 0 0 1.95-.82l1.55 1.55 2.7-2.7-1.55-1.55a7.64 7.64 0 0 0 .82-1.95h2.25v-3.82h-2.18a7.64 7.64 0 0 0-.82-1.95l1.55-1.55-2.7-2.7-1.55 1.55a7.64 7.64 0 0 0-1.95-.82V878zm5.74 9.55a3.82 3.82 0 1 1-3.82-3.82 3.82 3.82 0 0 1 3.81 3.77zM1051.89 865.61h17.51v4.38h-17.51zM1006.48 679v143h125V679zm65.76 29.29c4.6-4.72 20.88-7.27 20.88-7.27s-2.9 17.16-6.71 21.06a9.88 9.88 0 0 1-12.46 1.4 7.18 7.18 0 0 0-.8 3v7h15.38l-4.14 18.56h-28.11l-4.14-18.56h15.38v-7a14 14 0 0 1 2.63-7.65 9.87 9.87 0 0 1 2.09-10.56zm-9.06 4.75a6.8 6.8 0 1 1-8.92 10.28c-3.43-3-5.82-14.06-5.82-14.06s11.9 1.3 14.74 3.74zm-25 55.52h61v7h-61zm77 29h-92v-7h92zM1207.21 738.68a9.11 9.11 0 1 0-9.11-9.11 9.11 9.11 0 0 0 9.11 9.11zm3.21-11.25a2.14 2.14 0 1 1-2.14 2.14 2.14 2.14 0 0 1 2.14-2.14zm-6.43 0a2.14 2.14 0 1 1-2.14 2.14 2.14 2.14 0 0 1 2.15-2.14z" fill="#fff" opacity=".86" style="mix-blend-mode:hard-light"/><path d="M1144 679v143h125V679zm43.4 31.84a6.25 6.25 0 0 1 6.43-6.43 7 7 0 0 1 6.43 3.75 23.17 23.17 0 0 1 13.93 0 7 7 0 0 1 6.43-3.75 6.25 6.25 0 0 1 6.43 6.43 7.26 7.26 0 0 1-2.68 5.89 19.16 19.16 0 0 1 2.68 10.18 19.51 19.51 0 0 1-4.82 12.86v9.64h-9.64v-3.75a13.93 13.93 0 0 1-10.71 0v3.75h-9.64v-9.64a19.51 19.51 0 0 1-4.82-12.86 19.16 19.16 0 0 1 2.68-10.18 7.26 7.26 0 0 1-2.71-5.91zm-11.69 57.72h61v7h-61zm77 29h-92v-7h92zM1144 523.85v143h125v-143zm79.42 33.81h5.86a.89.89 0 0 1 .89.89v35.11l-9-9H1195a.89.89 0 0 1-.89-.89v-5.86h29.25zm-38.25-8.11a.89.89 0 0 1 .89-.89h32a.89.89 0 0 1 .89.89v23a.89.89 0 0 1-.89.89h-23.86l-9 9zm-9.46 63.87h61v7h-61zm77 29h-92v-7h92zM791.56 737.85l11.56-16.38h-4.62l-11.56 16.38h4.62zM799.35 735.17a2.74 2.74 0 0 0 5.47 0 2.74 2.74 0 0 0-5.47 0zM788 726.84a2.69 2.69 0 1 0-2.73-2.68 2.7 2.7 0 0 0 2.73 2.68z" fill="#fff" opacity=".86" style="mix-blend-mode:hard-light"/><path d="M732.82 679v143h125V679zM774 704.52a1 1 0 0 1 1-1h5a1 1 0 0 1 1 1v3.21a1 1 0 0 0 1 1h2.66a1 1 0 0 0 1-1v-3.21a1 1 0 0 1 1-1h5a1 1 0 0 1 1 1v3.21a1 1 0 0 0 1 1h2.66a1 1 0 0 0 1-1v-3.21a1 1 0 0 1 1-1h5a1 1 0 0 1 1 1v3.21a1 1 0 0 0 1 1h2.66a1 1 0 0 0 1-1v-3.21a1 1 0 0 1 1-1h5a1 1 0 0 1 1 1v43a1 1 0 0 1-1 1H775a1 1 0 0 1-1-1zm-9.45 64h61v7h-61zm77 29h-92v-7h92z" fill="#fff" opacity=".86" style="mix-blend-mode:hard-light"/><path d="M788 721.47a2.69 2.69 0 1 1 0 5.37 2.69 2.69 0 1 1 0-5.37zm-1 16.38l11.56-16.38h4.63l-11.56 16.38zm15.14-5.37a2.69 2.69 0 1 1 0 5.37 2.69 2.69 0 1 1 0-5.37zM938.73 708.62l-9.73 3.89h11.67l-1.94-3.89zM931.75 730.51l4.5 4.5h14.82v-9h-14.82zm8.07-2.25a2.25 2.25 0 1 1-2.25 2.25 2.25 2.25 0 0 1 2.24-2.25z" fill="#fff" opacity=".86" style="mix-blend-mode:hard-light"/><path d="M869.82 679v143h125V679zm40.74 38a4.51 4.51 0 0 1 4.5-4.5h1.81l22.1-8.84a2.26 2.26 0 0 1 2.85 1.08l3.88 7.76h.86a4.51 4.51 0 0 1 4.5 4.5v4.5h2.25a2.25 2.25 0 0 1 2.25 2.25v13.5a2.25 2.25 0 0 1-2.25 2.25h-2.25v4.5a4.51 4.51 0 0 1-4.5 4.5h-31.5a4.51 4.51 0 0 1-4.5-4.5zm-9 51.53h61v7h-61zm77 29h-92v-7h92zM1006.48 523.85v143h125v-143zm75.41 51h8.61v17.25h-8.61zm-17.22-25.83h8.61v43h-8.61zM1047.46 562h8.61v30.1h-8.61zm-9.27 51.44h61v7h-61zm77 29h-92v-7h92zM869.82 523.85v143h125v-143zm51.77 29a12.31 12.31 0 0 1 10.75 6.31 12.31 12.31 0 0 1 23.06 6 14 14 0 0 1-.91 4.82H940.9l-1.79-2.13a1.88 1.88 0 0 0-3.1.34l-3 5.67-3.92-8.24a1.88 1.88 0 0 0-3.33-.11l-2.49 4.49h-13.11a14.37 14.37 0 0 1-.88-4.82 12.32 12.32 0 0 1 12.31-12.35zm31 20.89c-6.12 9.82-20.3 17.13-20.3 17.13s-14.29-7.19-20.37-17.13h12.4a1.88 1.88 0 0 0 1.64-1l1.27-2.27 4 8.36a1.88 1.88 0 0 0 1.66 1.07 1.88 1.88 0 0 0 1.66-1l3.41-6.52.55.66a1.88 1.88 0 0 0 1.44.67zm-51.11 39.7h61v7h-61zm77 29h-92v-7h92zM732.82 523.85v143h125v-143zm62.33 25.78l23.84 12a2.29 2.29 0 0 1-.17 4.18L795.07 575l-9.15-3.81-11.52-4.8v10.54a2.29 2.29 0 0 1-4.59 0V563.7l-.09-1.65zm15.94 24.11v7.86l-16 5-16-5.45v-7.91l16 5.5zm-36.68 10.59v4.59a2.29 2.29 0 0 1-4.59 0v-4.59a2.29 2.29 0 1 1 4.59 0zm-9.88 29.08h61v7h-61zm77 29h-92v-7h92zM930 891.91l-3.43-3.43-3 3 4.92 4.92c.38.38 1.49 1.4 1.49 1.4s1.11-1 1.49-1.4l9.84-9.84-3-3z" fill="#fff" opacity=".86" style="mix-blend-mode:hard-light"/><path d="M869.82 834.1v143h125v-143zm70.65 27h5.72v10.19h-5.72zm-22.11 0h5.72v10.19h-5.72zm-7.53 5.62h5.31v6.41h10.17v-6.41h11.93v6.41h10.17v-6.41h5v39.38h-42.57zm-9.31 56.89h61v7h-61zm77 29h-92v-7h92zM1190.09 895h33.75v-29.1h-33.75zm26.51-25.73a3.71 3.71 0 1 1-3.71 3.71 3.72 3.72 0 0 1 3.71-3.74zm-11.84 6.89a1 1 0 0 1 1.52 0l12.88 14.84h-25.55z" fill="#fff" opacity=".86" style="mix-blend-mode:hard-light"/><path d="M1144 834.1v143h125v-143zm40.48 26.17h45v47.47h-45zm-8.77 63.39h61v7h-61zm77 29h-92v-7h92z" fill="#fff" opacity=".86" style="mix-blend-mode:hard-light"/><path fill="#202b33" opacity=".52" style="mix-blend-mode:hard-light" d="M1038.19 613.42h61v7h-61zM1023.19 635.42h92v7h-92zM901.53 613.42h61v7h-61zM886.53 635.42h92v7h-92zM764.53 613.42h61v7h-61zM749.53 635.42h92v7h-92zM1175.69 613.42h61v7h-61zM1160.69 635.42h92v7h-92zM1038.19 768.54h61v7h-61zM1023.19 790.54h92v7h-92zM901.53 768.54h61v7h-61zM886.53 790.54h92v7h-92zM764.53 768.54h61v7h-61zM749.53 790.54h92v7h-92zM1175.69 768.54h61v7h-61zM1160.69 790.54h92v7h-92zM1038.19 923.67h61v7h-61zM1023.19 945.67h92v7h-92zM901.53 923.67h61v7h-61zM886.53 945.67h92v7h-92zM764.53 923.67h61v7h-61zM749.53 945.67h92v7h-92zM1175.69 923.67h61v7h-61zM1160.69 945.67h92v7h-92zM814.78 881.2v-12.43h-7.4v6.17l-12.06-12.23-25.73 25.37a.24.24 0 0 0 .18.41h5.56v17a.24.24 0 0 0 .24.24h7.15v-12.31h7.4v12.33h24.41a.24.24 0 0 0 .24-.24v-17h5.54a.24.24 0 0 0 .19-.4zm-7.51 14.68h-8.46v-7.4h8.46z"/><g opacity=".52" style="mix-blend-mode:hard-light" fill="#202b33"><path d="M1090.5 861.23h-42.2a.79.79 0 0 0-.79.79v42.2c0 .44.35 2 .79 2h42.2c.44 0 .79-1.57.79-2V862a.79.79 0 0 0-.79-.77zm-14.5 4.38a2.18 2.18 0 1 1-2.19 2.18 2.19 2.19 0 0 1 2.19-2.18zm-24.08 0h17.51V870h-17.51zm27.08 23.81h-2.18a7.64 7.64 0 0 1-.82 1.95l1.55 1.55-2.7 2.7-1.55-1.55a7.64 7.64 0 0 1-1.95.82v2.18h-3.82v-2.18a7.64 7.64 0 0 1-1.95-.82l-1.55 1.55-2.7-2.7 1.55-1.55a7.27 7.27 0 0 1-.81-1.95h-2.18v-3.82h2.11a7.64 7.64 0 0 1 .82-1.95l-1.55-1.55 2.7-2.7 1.54 1.55a7.64 7.64 0 0 1 1.95-.82V878h3.82v2.18a7.64 7.64 0 0 1 1.95.82l1.55-1.55 2.7 2.7-1.55 1.55a7.64 7.64 0 0 1 .82 1.95h2.25zm5.78-19.43a2.18 2.18 0 1 1 2.19-2.18 2.19 2.19 0 0 1-2.24 2.19z"/><circle cx="1069.4" cy="887.5" r="3.82"/></g><g opacity=".52" style="mix-blend-mode:hard-light" fill="#202b33"><path d="M1063.86 722.62a6.81 6.81 0 0 0-.68-9.6c-2.84-2.46-14.74-3.78-14.74-3.78s2.39 11.08 5.82 14.06a6.81 6.81 0 0 0 9.6-.68zM1073.15 726.48a7.17 7.17 0 0 1 .8-3 9.88 9.88 0 0 0 12.46-1.4c3.81-3.91 6.71-21.06 6.71-21.06s-16.28 2.55-20.88 7.27a9.88 9.88 0 0 0-2.08 10.56 14 14 0 0 0-2.63 7.65v11h5.62z"/><path d="M1052.15 733.51l4.14 18.55h28.11l4.14-18.55h-36.39z"/></g><path d="M1193.81 704.39a6.25 6.25 0 0 0-6.43 6.43 7.26 7.26 0 0 0 2.68 5.89 19.16 19.16 0 0 0-2.68 10.18 19.51 19.51 0 0 0 4.82 12.86v9.64h9.64v-3.75a13.93 13.93 0 0 0 10.71 0v3.75h9.64v-9.64a19.51 19.51 0 0 0 4.82-12.86 19.16 19.16 0 0 0-2.68-10.18 7.26 7.26 0 0 0 2.68-5.89 6.25 6.25 0 0 0-6.43-6.43 7 7 0 0 0-6.43 3.75 23.17 23.17 0 0 0-13.93 0 7 7 0 0 0-6.41-3.75zm13.39 16.07a9.11 9.11 0 1 1-9.11 9.11 9.11 9.11 0 0 1 9.12-9.1zm-3.21 7a2.14 2.14 0 1 0 2.14 2.14 2.14 2.14 0 0 0-2.13-2.17zm6.43 0a2.14 2.14 0 1 0 2.14 2.14 2.14 2.14 0 0 0-2.14-2.17z" fill="#202b33" opacity=".52" style="mix-blend-mode:hard-light"/><g opacity=".52" style="mix-blend-mode:hard-light"><path d="M1218.9 572.53v-23a.89.89 0 0 0-.89-.89h-32a.89.89 0 0 0-.89.89v32.86l9-9H1218a.89.89 0 0 0 .9-.86zm10.36-14.86h-5.86v20.25h-29.25v5.86a.89.89 0 0 0 .89.89h26.11l9 9v-35.12a.89.89 0 0 0-.89-.89z" fill="#202b33"/><g clip-path="url(#a)"><path fill="#202b33" d="M-655.35 436.16h2322v378h-2322z"/><g clip-path="url(#b)"><path fill="#202b33" d="M1173.9 537.41h67.5v67.5h-67.5z"/></g></g></g><path d="M815.08 703.51h-5a1 1 0 0 0-1 1v3.21a1 1 0 0 1-1 1h-2.68a1 1 0 0 1-1-1v-3.21a1 1 0 0 0-1-1h-5a1 1 0 0 0-1 1v3.21a1 1 0 0 1-1 1h-2.7a1 1 0 0 1-1-1v-3.21a1 1 0 0 0-1-1h-5a1 1 0 0 0-1 1v3.21a1 1 0 0 1-1 1H782a1 1 0 0 1-1-1v-3.21a1 1 0 0 0-1-1h-5a1 1 0 0 0-1 1v43a1 1 0 0 0 1 1h40.09a1 1 0 0 0 1-1v-43a1 1 0 0 0-1.01-1zm-29.84 20.66a2.74 2.74 0 1 1 2.73 2.68 2.71 2.71 0 0 1-2.73-2.69zm1.7 13.69l11.56-16.38h4.63l-11.56 16.38zm15.14 0a2.69 2.69 0 1 1 0-5.37 2.69 2.69 0 1 1 0 5.37z" fill="#202b33" opacity=".52" style="mix-blend-mode:hard-light"/><g opacity=".52" style="mix-blend-mode:hard-light" fill="#202b33"><path d="M953.31 721.51h-2.25V717a4.51 4.51 0 0 0-4.5-4.5h-.86l-3.88-7.76a2.26 2.26 0 0 0-2.85-1.08l-22.1 8.84h-1.81a4.51 4.51 0 0 0-4.5 4.5v27a4.51 4.51 0 0 0 4.5 4.5h31.5a4.51 4.51 0 0 0 4.5-4.5v-4.5h2.25a2.25 2.25 0 0 0 2.25-2.25v-13.5a2.25 2.25 0 0 0-2.25-2.24zm-14.59-12.89l1.95 3.89H929zM951.06 735h-14.81l-4.5-4.5 4.5-4.5h14.82z"/><circle cx="939.81" cy="730.51" r="2.25"/></g><g opacity=".52" style="mix-blend-mode:hard-light" fill="#202b33"><path d="M1081.89 574.89h8.61v17.22h-8.61zM1064.67 549.06h8.61v43.04h-8.61zM1047.46 561.97h8.61v30.13h-8.61z"/></g><g opacity=".52" style="mix-blend-mode:hard-light" fill="#202b33"><path d="M923.27 570l2.51-4.48a1.88 1.88 0 0 1 3.33.11l3.92 8.24 3-5.67a1.88 1.88 0 0 1 3.1-.34l1.77 2.14h13.6a14 14 0 0 0 .91-4.82 12.31 12.31 0 0 0-23.06-6 12.31 12.31 0 0 0-23.06 6 14.38 14.38 0 0 0 .88 4.82z"/><path d="M940 573.72a1.88 1.88 0 0 1-1.44-.67l-.55-.66-3.41 6.52a1.88 1.88 0 0 1-1.66 1 1.88 1.88 0 0 1-1.66-1.07l-4-8.36-1.28 2.28a1.88 1.88 0 0 1-1.64 1H912c6.08 9.94 20.37 17.13 20.37 17.13s14.18-7.32 20.3-17.13z"/></g><g opacity=".52" style="mix-blend-mode:hard-light" fill="#202b33"><path d="M948.42 866.77v6.41h-10.17v-6.41h-11.94v6.41h-10.17v-6.41h-5.31v39.38h42.63v-39.38zm-7 19.77l-9.84 9.84c-.38.38-1.49 1.4-1.49 1.4s-1.11-1-1.49-1.4l-4.92-4.92 3-3 3.43 3.43 8.35-8.35z"/><path d="M946.19 871.33h-5.72v-10.19h5.72zM924.08 871.33h-5.72v-10.19h5.72z"/></g><g opacity=".52" style="mix-blend-mode:hard-light" fill="#202b33"><path d="M1229.46 907.75h-45v-47.47h45zm-5.62-41.84h-33.75V895h33.75z"/><path d="M1193.62 891l11.14-14.85a1 1 0 0 1 1.52 0l12.88 14.85zM1216.6 876.66a3.71 3.71 0 1 1 3.71-3.71 3.72 3.72 0 0 1-3.71 3.71z"/></g><g opacity=".52" style="mix-blend-mode:hard-light" fill="#202b33"><path d="M819 561.65l-23.84-12L769.73 562l.09 1.65v13.22a2.29 2.29 0 1 0 4.59 0v-10.49l11.52 4.8 9.15 3.81 23.75-9.16a2.29 2.29 0 0 0 .17-4.18z"/><path d="M795.04 578.75l-16.05-5.5v7.92l16.05 5.45 16.05-5.02v-7.86l-16.05 5.01zM772.11 582a2.29 2.29 0 0 0-2.29 2.29v4.59a2.29 2.29 0 0 0 4.59 0v-4.59a2.29 2.29 0 0 0-2.3-2.29z"/></g><path d="M845 348H697v-30h148zM1279.02 317.98h30v30h-30zM1219.02 317.98h30v30h-30zM1159.02 317.98h30v30h-30z" fill="#202b33" opacity=".52" style="mix-blend-mode:hard-light"/><path d="M1038.37 288l-12.49 83.87h-17.38l-1-83.87h-5l1 83.87H985L970.32 288H663v90h325.12l-.16-5.13h11.45V378h13.05v-5.13H1024l-.16 5 5.51.09H1343V288zM845 348H697v-30h148zm344 0h-30v-30h30zm60 0h-30v-30h30zm60 0h-30v-30h30z" fill="#fff" opacity=".86" style="mix-blend-mode:hard-light"/><path d="M667.36 945s-6.25 10.38 4.46 16.81 13 8.86 13 8.86a32.13 32.13 0 0 1-.79-6.64 32.1 32.1 0 0 0-.81-9c-1-3.43-1.46-3.8-1.46-3.8a14.31 14.31 0 0 1 3.13-1.5c3.54-1.23 9.07-3 12.75-4a49.57 49.57 0 0 0 10.08-4l-6.19-7.32s-4.19 2.5-16.4 6.54a143.85 143.85 0 0 1-17.77 4.05z" fill="#202b33" opacity=".46" style="mix-blend-mode:hard-light"/><path d="M600.34 931.3l-4.34-4.2c0-.1 5.62-9.12-.11-18.33-5.85-9.4-21-14.56-43.89-14.92-8.92-.14-17.43-4.38-21.18-10.56a12.39 12.39 0 0 1-.58-12.34c4.85-9.71 14.66-9.15 14.7-8.92l1.52 4c.07-.22-9-.62-12.65 6.7a8.3 8.3 0 0 0 .42 8.47c3 5 10.34 8.52 17.82 8.63 24.67.39 40.57 6.05 47.25 16.85 6.87 11.11 1.28 24.11 1.04 24.62z" fill="#202b33" opacity=".25" style="mix-blend-mode:hard-light"/><path d="M588.3 960.06l-21.41 5.57s-6.42.43-3.85 6 10.71 27.84 10.71 27.84 7.28 1.71 9-1.71l1.71-3.43-7.71-.43-3.85-15.42 20.87-1.38z" fill="#202b33" opacity=".46" style="mix-blend-mode:hard-light"/><path d="M592.13 922.26c-.51 2.94-2.29 10.39-7.1 10.39-6 0-9-4.28-9.85-8.14s-1.28-5.14-5.57-9c-3.15-2.84-3.27-5-3.11-6-9.51 1.29-8.81 8.36-8.81 8.36h-11.27c.23.65.7 2.65-1.83 4.07l-3 1.7c.5 1.32 1.15 2.94 2 4.94 4.71 11.14 22.16 5.75 30 9.85 4.42 2.31 8.59 8.37 8.59 8.37a39.49 39.49 0 0 0 9.19-8.16A22.24 22.24 0 0 0 596 927.1a41.6 41.6 0 0 1-3.87-4.84z" fill="#fff" opacity=".44"/><path d="M546.33 917.66s1.28 2.57-1.71 4.28l-3 1.71s-1.71-4.71-1.71-6zM622.46 943.35s-11 10.71-10.18 17.14 7.28 9.85 9.42 9.42 5.14-7.71 11.56-9 12.42-.86 12.85-4.28a73.65 73.65 0 0 0 0-10.06s-7.58-.14-12.78-.82a79.54 79.54 0 0 1-10.87-2.4z" fill="#202b33" opacity=".46" style="mix-blend-mode:hard-light"/><path d="M634.55 945.89c-1.74-.22-3.44-.48-5.06-.8 1.25.25 2.56.49 3.85.65zM685.22 940.9c-2.33.71-4.86 1.4-7.57 2 2.57-.59 5.24-1.28 7.5-2zM681.81 951.2zM707.39 941.89a50.64 50.64 0 0 1-7.87 3.24 40.09 40.09 0 0 0 7.87-3.24zM684.07 964.45c0 .89.09 1.79.18 2.61-.09-.87-.14-1.73-.18-2.61zM681.88 951.28zM683.63 950.2c.57-.23 1.33-.52 2.3-.86l-1 .34c-.48.17-.93.32-1.3.52zM689.66 948.1c2.09-.66 4.72-1.47 8-2.44-2.25.63-5.22 1.54-8 2.44zM623.06 943.52l1.66.46c-.55-.15-1.11-.3-1.66-.46zM697.7 945.66c.63-.17 1.23-.35 1.82-.54l-.51.16zM689.66 948.1c-1.51.48-2.74.89-3.74 1.24 1.15-.39 2.42-.81 3.74-1.24zM707.75 941.69l-.36.2zM681.88 951.28l-.06-.08c-.01.05.04.07.06.08zM681.83 951.16a12.72 12.72 0 0 1 1.8-1c-1.36.59-1.73.84-1.8 1zM685.22 940.9a105.79 105.79 0 0 0 12.46-4.65c-2.58 1.12-6.58 2.75-12.46 4.65zM684.07 964.45V964a32.1 32.1 0 0 0-.81-9 15 15 0 0 0-1.35-3.66 23.07 23.07 0 0 1 2.09 10.22c0 .99 0 1.94.07 2.89zM684.26 967.05a27.75 27.75 0 0 0 .51 3.12c-.13-.59-.36-1.75-.51-3.12zM668.95 944.69c3.09-.51 6-1.1 8.71-1.75-3.51.81-6.83 1.42-8.71 1.75z" fill="#fff" opacity=".25" style="mix-blend-mode:hard-light"/><path d="M682.46 992.48c-8.11-6.23-16.07-12.48-16.79-15.72l-.86-3.85a98.35 98.35 0 0 0-12.06 1l-1.2.17s3.22 7.62 12.62 14.45 11.56 9.85 12.42 15a58.2 58.2 0 0 1 .86 8.64s-6 1.73-5.57 6h12.57a23.24 23.24 0 0 1 1.57-4.09z" fill="#202b33" opacity=".25" style="mix-blend-mode:hard-light"/><path d="M544 856l2.2 9.44a6.16 6.16 0 0 1-1.37 4.21 6.16 6.16 0 0 1-5.9 2.17l-4.44-.83 3.92-3.6a1.79 1.79 0 0 0 0-2.61 1.79 1.79 0 0 0-2.36-.12l-2.78 2.19.81-9.63z" fill="#fff"/><path d="M529 852.85l-7.12.07H486l-37 65.45 17.16 70.46h20.17l-10.17-65.53s7.82-5.78 18.64-15.71l2.92 31.27 11.49 59.75 19.37.26-8.2-63z" fill="#202b33" opacity=".5" style="mix-blend-mode:hard-light"/><path fill="#fff" d="M471.99 996.03h10.5l-1.07-7.04h-10.67l1.24 7.04z"/><path d="M484.76 996.17l2.24 12.33-23.63 9.67h-12.72a3.11 3.11 0 0 1-1-6.11l19.91-15.89z" fill="#202b33" opacity=".62" style="mix-blend-mode:hard-light"/><path fill="#fff" d="M515.63 1006.27h10.5l-1.68-7.41-10.7-.28 1.88 7.69z"/><path d="M528.1 1006.17l2.18 12h-34a3.31 3.31 0 0 1-1-6.47l18-5.53z" fill="#202b33" opacity=".62" style="mix-blend-mode:hard-light"/><path d="M544.94 808.65l-28.86-44.79s-16.37 3.35-16.56 3.84l-7.71 32.42-.08.45-5.73 52.35 43-.07-1.91-46.71 2.87 9.58a1.26 1.26 0 0 1 0 .27l3 40.86 11.81-.91a1.26 1.26 0 0 0 1.16-1.28l-1-45.59a1.26 1.26 0 0 0 .01-.42z" fill="#202b33" opacity=".25" style="mix-blend-mode:hard-light"/><path d="M528.84 853h-42.81l-37 65.45L466.11 989h20.17l-10.12-65.7s29.59-22.77 40.83-39.85c10.89-16.56 11.85-30.45 11.85-30.45z" fill="#202b33" opacity=".12" style="mix-blend-mode:hard-light"/><path d="M581.91 946.93a38.56 38.56 0 0 0 9.4-8.28A22.24 22.24 0 0 0 596 927.1l4.34 4.2a18.74 18.74 0 0 1-5.61 12.05c-3.45 3.45-9.59 9.19-9.59 9.19l-3.23-5.61" fill="#202b33" opacity=".25" style="mix-blend-mode:hard-light"/><path d="M566.64 909s-1.32 2.69 3 6.55 4.71 5.14 5.57 9 3.85 8.14 9.85 8.14 7.28-11.56 7.28-11.56 1.28-10.28-3-11.56-22.7-.57-22.7-.57z" fill="#202b33" opacity=".46" style="mix-blend-mode:hard-light"/><path d="M671.82 961.77c-10.71-6.42-4.46-16.81-4.46-16.81l1.58-.27a141 141 0 0 1-23.26 1.87h.44a73.62 73.62 0 0 1 0 10.06c-.43 3.43-6.42 3-12.85 4.28s-9.42 8.57-11.56 9-8.57-3-9.42-9.42 10.18-17.14 10.18-17.14l.27.08a60.75 60.75 0 0 1-22.42-12.15 18.74 18.74 0 0 1-5.61 12.05c-3.45 3.45-9.59 9.19-9.59 9.19l-.05-.1a70.86 70.86 0 0 1 3.43 7.83l16 52.76a13.85 13.85 0 0 0-3.85.86c-2.57.86-2.14 4.28-2.14 4.28h13.7l-4-36.91a177.62 177.62 0 0 0 30-4.71 118.19 118.19 0 0 1 26.55-3.85l.86 3.85c.86 3.85 12 12 21.41 19.27 3.6 2.78 3.85 15.92 3.85 15.92a8.53 8.53 0 0 0-3.43.86c-1.71.86-3 5.57-3 5.57H699s0-4.36-.86-13.78-3.43-15.85-8.57-23.56a31 31 0 0 1-4.83-10.65c.06.28.1.45.1.45s-2.31-2.41-13.02-8.83zM717.43 925.58c-1.71-1.71-12.42 6.85-12.42 6.85a59.45 59.45 0 0 1-7.33 3.81 39.41 39.41 0 0 0 3.88-1.87l6.19 7.31c10.76-6.11 11.08-14.68 9.68-16.1z" fill="#fff" opacity=".44"/><path fill="#fff" d="M516.08 763.85l-5.55-8.76-9.61-1.51-1.39 14.11 16.55-3.84z"/><path d="M507.43 744.68c1.52-1.15 4.1-4.19 4.1-6.09a3.19 3.19 0 0 0-3.13-3.44 3.44 3.44 0 0 0-3.44 3.44l.07 1.75c-4-.74-9-2.36-10.34-7.41a4.7 4.7 0 0 0-.92-2.17H485a25.36 25.36 0 0 0-1.5 9.42c.37 10.4 8.39 18.55 17.91 18.21a16.11 16.11 0 0 0 9.1-3.26c-.92-1.44-1.95-3.1-2.76-4.39a6.09 6.09 0 0 1-.32-6.06z" fill="#fff"/><g opacity=".44" fill="#fff"><path d="M523.06 728.35h.62a21.14 21.14 0 0 0-2.13-6.46 6.5 6.5 0 0 0-6.5 6.5h8.05zM493.85 730.73a9.65 9.65 0 0 1 .87 2.08c1.22 5.07 6.33 6.8 10.31 7.53v-1.87a3.31 3.31 0 0 1 3.42-3.31 3.1 3.1 0 0 1 3.16 3.31c0 1.9-2.44 4.93-4 6.08a6.08 6.08 0 0 0 .19 6 44.16 44.16 0 0 1 3.38 6.6s10.51-13.15 12.12-19.64a23.09 23.09 0 0 0 .63-6.78z"/></g><path d="M523.06 728.35H515a6.5 6.5 0 0 1 6.5-6.5h.65a17.26 17.26 0 0 0-16.35-11.75h-4.73c-7.44 0-15.41 5.78-17.72 12.86l-1.68 5.14-10.75.2a2.42 2.42 0 0 0-2.37 2.42h55.94v-2.37zM1340.25 680.85l-11.36 4.97.96 4.63 28.36.08-5.15-11-12.81 1.32zM1358.49 555.67h9.15l-11.33-58.55-42.72-25.27.08.19-11.76-4.7-5.34-6.48-53.55 32.74-29.35-22.84-8.95 7.84 34.8 35.03 37.44-16.35 20.09 54.11 51.1-13.61-18.19-35.27 13.04 6.25 15.49 46.91z" fill="#202b33" opacity=".62" style="mix-blend-mode:hard-light"/><path fill="#fff" d="M1289.41 465.1l-7.26-11.49-8.07.05 3.3 18.79 12.03-7.35z"/><path d="M1274.71 417.39c-10.75 2-18.5 10.39-17.14 19.66l10.77-1.58a14.83 14.83 0 0 1 1.16 2.46c1.4 5 6.48 6.36 10.39 6.94l-.14-1.72a3.37 3.37 0 0 1 3.22-3.53 3.15 3.15 0 0 1 3.2 3.29c.08 1.88-2.33 5-3.76 6.17a6.1 6.1 0 0 0 .59 5.92c2.17 3.2 5.86 8.85 5.26 6.8s.33-3.39 1.89-6.9 6.16-6.88 7.47-13.4c2.65-13.19-6.48-27.24-22.91-24.11z" fill="#fff" opacity=".44" style="mix-blend-mode:hard-light"/><path d="M1282.39 449.19c1.43-1.19 3.84-4.29 3.76-6.17a3.15 3.15 0 0 0-3.2-3.29 3.37 3.37 0 0 0-3.22 3.53l.14 1.72c-3.92-.58-9-2-10.39-6.94a14.83 14.83 0 0 0-1.16-2.46l-8.19 1.2a20.11 20.11 0 0 0-1.28 8.8c.78 10.26 8.94 18 18.23 17.33a15.6 15.6 0 0 0 8.76-3.56c-1-1.39-2-3-2.87-4.23a6.1 6.1 0 0 1-.58-5.93zM1202.08 463.24l3.4 5.61 3-3 4.15 5.89-8 7.84-8.12-7.94a3 3 0 0 1 0-4.3s2.35-4.34 5.57-4.1zM1368 555.85l1.66 5.37a3.33 3.33 0 0 1-3.18 4.32l-2.18-3.56-5.66-.44-.13-5.69zM1315.79 680.84l8.87-.91-2.12-5.7-8.81 1 2.06 5.61z" fill="#fff"/><path d="M1190 433.35a21.5 21.5 0 1 0 21.5 21.5 21.5 21.5 0 0 0-21.5-21.5zm11.67 24.53H1193v8.65h-6v-8.65h-8.65v-6.05h8.65v-8.65h6v8.65h8.65z" fill="#fff" opacity=".86" style="mix-blend-mode:hard-light"/><path d="M1338 674.94l14.31-1-8.31-50.63 12.7-52.91c.9-4.87 1-6.54-.37-14.68-1.47-9-8-18.06-8-18.06l-.16.13-3.1.82L1303 549.8h-.17l-5.07 1.35-2.07 73.35 15.06 51 13.34-1.28-7.6-48 9.39-41.86-1.9 41z" fill="#fff" opacity=".44"/><path fill="#202b33" opacity=".62" style="mix-blend-mode:hard-light" d="M1329.85 690.45l-2.23-10.82-8.29.85-6.3.64-9.95 4.67.61 4.63 26.16.03z"/><path fill="#fff" d="M1342.14 680.84l8.92-1.1-2-4.65-8.91.76 1.99 4.99z"/><path d="M925 180.29a47.18 47.18 0 1 0-90.2-21.18c-1.07 27.07 20.65 48.4 47.44 48.63h47.17c-6.9-8.17-8.54-18.16-4.41-27.45zm-42.91 6.14s-27.39-13.78-27.39-30.54a14.62 14.62 0 0 1 27.39-7.13 14.62 14.62 0 0 1 27.4 7.13c.03 16.41-27.37 30.54-27.37 30.54z" fill="#fff" opacity=".86" style="mix-blend-mode:hard-light"/><path d="M871.36 161.62l3-5.32a2.23 2.23 0 0 1 4 .13l4.66 9.79 3.52-6.74a2.23 2.23 0 0 1 3.69-.4l2.13 2.54h16.15a16.65 16.65 0 0 0 1.08-5.72 14.62 14.62 0 0 0-27.4-7.13 14.62 14.62 0 0 0-27.39 7.13 17.08 17.08 0 0 0 1 5.72z" fill="#202b33" opacity=".62" style="mix-blend-mode:hard-light"/><path d="M891.26 166.08a2.23 2.23 0 0 1-1.71-.8l-.65-.78-4.05 7.74a2.23 2.23 0 0 1-2 1.2 2.23 2.23 0 0 1-2-1.27l-4.73-9.93-1.51 2.7a2.23 2.23 0 0 1-1.95 1.14h-14.73c7.22 11.81 24.19 20.35 24.19 20.35s16.84-8.69 24.11-20.35z" fill="#202b33" opacity=".62" style="mix-blend-mode:hard-light"/><path d="M682.46 992.48c-8.11-6.23-16.07-12.48-16.79-15.72l-.86-3.85a98.35 98.35 0 0 0-12.06 1l-1.2.17s3.22 7.62 12.62 14.45 11.56 9.85 12.42 15a58.2 58.2 0 0 1 .86 8.64s-6 1.73-5.57 6h12.57a23.24 23.24 0 0 1 1.57-4.09zM1045.86 172.8l-43.5-3.94-38.91 4.75-9 59.77 21 4.43.88 18.06h58l.43-17 19.24-5.47zm-72.44 52l-5.28-1.25 4.35-19.32zm62.14.87l.8-21.45 4.73 19.59z" fill="#202b33" opacity=".25" style="mix-blend-mode:hard-light"/><g opacity=".44" style="mix-blend-mode:hard-light" fill="#fff"><path d="M972.29 166.21c1.24 1.28 1.79 4.91 1.72 6.51l27.4-2.34 13 .18c7-7.81 11.08-20 11.08-30.83v-10.12c0-11.66-8.86-21.67-20.49-22.46a24.9 24.9 0 0 0-26.51 22.55l-.05 4.31a16.9 16.9 0 0 1-7.14 13.55 11.07 11.07 0 0 0 .99 18.65zM962.78 180l-5.1 2.53a19 19 0 0 0-5.27 3.86c-6.27 6.53-5.64 17 1 23.21l4.32 4z"/></g><path fill="#202b33" opacity=".62" style="mix-blend-mode:hard-light" d="M1025.04 250.85h-42l-5-61h52l-5 61z"/><path d="M1020.93 224.89l5.74 2 1-3.13 4.46 2.16-1.13 11.33-11.53-.94a3 3 0 0 1-2.78-3.39l.64-5.4a3 3 0 0 1 3.6-2.63zM986.75 225.23l-5.87 1.61.29-3.63-5.69 2.27.33 11.38 11.57-.13a3 3 0 0 0 3-3.19l-.25-5.43a3 3 0 0 0-3.38-2.88zM1023.76 380.85h-11.28l.08-8h11.45l-.25 8z" fill="#fff"/><path d="M1010.67 379.85l-2.59 16 30.08 3a3.64 3.64 0 0 0 1.21-7.14l-11.09-11.88z" fill="#202b33" opacity=".83" style="mix-blend-mode:hard-light"/><path fill="#fff" d="M988.21 380.85h11.27l-.07-8h-11.45l.25 8z"/><path d="M1003.84 379.85l2.17 16-31.08 3c-4.44 0-5-5.86-.78-7.14l12.09-11.88z" fill="#202b33" opacity=".83" style="mix-blend-mode:hard-light"/><path d="M1008.3 185.85a4.55 4.55 0 0 0-8.81 0h-5v4h19v-4zM1010.46 169.79l-3.11-12.2-9.32.44-2.82 11.81 7.64.35 7.61-.4zM983.19 135.84a2.92 2.92 0 0 0-2.93.53 3.72 3.72 0 0 0-.38 4.81c1 1.38 4 2.7 4.16 4 .35-2.18-.88-9.18-.85-9.34zM1022.75 135.25a2.92 2.92 0 0 1 2.82.94 3.72 3.72 0 0 1-.29 4.81c-1.17 1.23-4.3 2-4.67 3.21-.05-2.21 2.15-8.76 2.14-8.96z" fill="#fff"/><path d="M1017.12 134.18c-5.85-3.37-6.65-6.63-6.65-6.63a19.58 19.58 0 0 1-9.32 6.27c-5.72 1.74-17 1.82-18.14 1.83 0 .32-.08.64-.1 1-.9 11.37 5.79 21.56 15.83 23.4 10.83 2 21.47-6.46 23.75-18.88a51.66 51.66 0 0 0 .37-5.77c-.62.14-2.76.5-5.74-1.22z" fill="#fff"/><path d="M983.25 125.86s.01-.05 0 0z"/><path d="M969.6 283.92l6.64-6.91a13.06 13.06 0 0 1 14.27-1.34l9.81 5.19h7.16l10.74-5.69a13.06 13.06 0 0 1 13 .46l8 6.25-.89 6h8.67l-13.07-32h-57.87l-13.08 32h7.31z" fill="#202b33" opacity=".62" style="mix-blend-mode:hard-light"/><path d="M969.6 283.92l15.4 87.93h18.49l-1-84h5l1 84h17.38l13.39-90-8-6.25a13.06 13.06 0 0 0-13-.46l-10.74 5.69h-7.16l-9.81-5.19a13.06 13.06 0 0 0-14.3 1.36z" fill="#202b33" opacity=".69" style="mix-blend-mode:hard-light"/><path d="M1362.35 569.42a4.1 4.1 0 0 0 4.07-3.17 4.2 4.2 0 0 0 .07-.71l-2.17-3.55-5.66-.44v-.13h-1.53a24.6 24.6 0 0 1-.27 8zM1316.81 628.42l1.27 8h9.01l-2.28-8h-8z" fill="#202b33" opacity=".62" style="mix-blend-mode:hard-light"/><path d="M1421.5 1010.16h-9.37l-57.64-430.61-5.18 21.57 3.66 27.29h-8.14l1.32 8h7.9l7.24 54h-3.14l.05.11-28.36-.08h-26.16l-7.19-54h2.72l-2.36-8h-1.42l-7.86-59h9.69l.23-8h-23.8a4.1 4.1 0 0 0-4.07 3.17 4 4 0 0 0 3.92 4.83h6a4 4 0 0 0 0 .53l58.46 440.19h-8.41a4.1 4.1 0 0 0-4.07 3.17 4 4 0 0 0 3.92 4.83h25.85a4.1 4.1 0 0 0 4.07-3.17 4 4 0 0 0-3.92-4.83h-9.36l-7.84-59.74h57.87l7.91 59.74h-8.41a4.1 4.1 0 0 0-4.07 3.17 4 4 0 0 0 3.92 4.83h25.85a4.1 4.1 0 0 0 4.07-3.17 4 4 0 0 0-3.88-4.83zm-116.78-311.74h57.64l7.38 55H1312zm8.39 63h57.7l7.38 55h-57.75zm8.39 63h57.76l7.38 55h-57.81zm15.72 118l-7.33-55h57.82l7.38 55zM1642.5 1032.5h-1285a7 7 0 0 1 0-14h1285a7 7 0 0 1 0 14z" fill="#202b33" opacity=".62" style="mix-blend-mode:hard-light"/></g></svg>