<svg xmlns="http://www.w3.org/2000/svg" width="2000" height="1125" viewBox="0 0 2000 1125"><defs><linearGradient id="a" x1="995.91" y1="54.22" x2="995.91" y2="642.71" gradientUnits="userSpaceOnUse"><stop offset="0" stop-color="#fff" stop-opacity=".6"/><stop offset="1" stop-color="#fff" stop-opacity="0"/></linearGradient><clipPath id="b"><path fill="none" d="M1317.41 492.5h254v383.88h-254z"/></clipPath><linearGradient id="c" x1="1259.47" y1="1010.41" x2="1402.92" y2="973.94" gradientUnits="userSpaceOnUse"><stop offset="0" stop-color="#202b33" stop-opacity=".6"/><stop offset=".35" stop-color="#485158" stop-opacity=".49"/><stop offset=".8" stop-color="#bbbfc1" stop-opacity=".18"/><stop offset="1" stop-color="#fff" stop-opacity="0"/></linearGradient><clipPath id="d"><path fill="none" d="M874.44 481.92h256.26v160.3H874.44z"/></clipPath></defs><title>artboard</title><g data-name="Artboard 5" style="isolation:isolate"><path fill="url(#a)" d="M1230.41 701.5h-469l180-385h119l170 385z"/><path d="M1642.5 1032.5h-1285a7 7 0 0 1 0-14h1285a7 7 0 0 1 0 14z" fill="#202b33" opacity=".62" style="mix-blend-mode:hard-light"/><path fill="#202b33" d="M1291.27 730.04h10.98v214.21h-10.98z" opacity=".52" style="mix-blend-mode:hard-light"/><path d="M1320.48 362.17a45.72 45.72 0 1 0 45.72 45.72 45.72 45.72 0 0 0-45.72-45.72zm21.81 61.7l-18.92-11.81a5.08 5.08 0 0 1-6.55-7.7l-10.92-29.18 3.75-1.4 10.86 29a5 5 0 0 1 5 5.84l18.93 11.82z" fill="#fff" opacity=".86" style="mix-blend-mode:hard-light"/><path d="M1344.4 420.48l-18.93-11.82a5 5 0 0 0-5-5.84l-10.86-29-3.75 1.4 10.92 29.18a5.08 5.08 0 0 0 6.55 7.7l18.92 11.81z" fill="#202b33" opacity=".62" style="mix-blend-mode:hard-light"/><path d="M1149.33 653.51v-184H855.82v184H978.3v14.4a35.84 35.84 0 0 1-21.79 33h-.1 92.32a36.13 36.13 0 0 1-21.89-33.27v-14.13zm-274.89-11.29v-160.3h256.26v160.3z" fill="#202b33" opacity=".52" style="mix-blend-mode:hard-light"/><path d="M891.79 651.54c-1.74-.22-3.44-.48-5.06-.8 1.25.25 2.56.49 3.85.65zM942.46 646.54c-2.33.71-4.86 1.4-7.57 2 2.57-.59 5.24-1.28 7.5-2zM939.06 656.84zM964.64 647.53a50.64 50.64 0 0 1-7.87 3.24 40.09 40.09 0 0 0 7.87-3.24zM941.32 670.09c0 .89.09 1.79.18 2.61-.09-.86-.15-1.7-.18-2.61zM939.12 656.92zM940.87 655.84c.57-.23 1.33-.52 2.3-.86l-1 .34c-.48.18-.92.35-1.3.52zM946.91 653.74c2.09-.66 4.72-1.47 8-2.44-2.26.63-5.23 1.55-8 2.44zM880.31 649.17l1.66.46c-.56-.15-1.12-.3-1.66-.46zM954.95 651.31c.63-.17 1.23-.35 1.82-.54l-.51.16zM946.91 653.74c-1.51.48-2.74.89-3.74 1.24 1.14-.38 2.41-.81 3.74-1.24zM965 647.34l-.36.2zM939.12 656.92l-.06-.08c-.06.06.04.08.06.08zM939.07 656.8a12.72 12.72 0 0 1 1.8-1c-1.36.6-1.73.87-1.8 1zM942.46 646.54a105.79 105.79 0 0 0 12.46-4.65c-2.57 1.11-6.58 2.71-12.46 4.65zM941.32 670.09v-.45a32.1 32.1 0 0 0-.81-9 15 15 0 0 0-1.35-3.66 23.07 23.07 0 0 1 2.12 10.23c-.01.98 0 1.94.04 2.88zM941.5 672.7a27.75 27.75 0 0 0 .51 3.12c-.13-.6-.35-1.75-.51-3.12zM926.19 650.34c3.09-.51 6-1.1 8.71-1.75-3.51.8-6.83 1.41-8.71 1.75z" fill="#fff" opacity=".25" style="mix-blend-mode:hard-light"/><path d="M1338.95 975.33c-21.76-13.05-9.06-34.16-9.06-34.16s1.21-.19 3.22-.55a286.62 286.62 0 0 1-47.27 3.8h.89s.87 13.47 0 20.44-13.06 6.09-26.11 8.7-19.15 17.41-23.5 18.28-17.41-6.09-19.15-19.15 20.68-34.83 20.68-34.83l.54.16a123.46 123.46 0 0 1-45.56-24.69h.05a38.09 38.09 0 0 1-11.4 24.49c-7 7-19.48 18.67-19.48 18.67l-.1-.2c2.36 4.64 4.18 14.8 5.37 23.32 1.05 7.57-5.27 17.55-12.84 18.58l-51.89 5.5s-13.29-6.52-17.26-2.71c-6.35 6.09-1.52 16.7-1.52 16.7h27.85s229 1.73 258-.27c-.59 0 3-21 3-21s-12.71-8.02-34.46-21.08z" fill="#fff" opacity=".44"/><path d="M1329.89 941.18s-12.7 21.1 9.06 34.16 34.46 21.17 34.46 21.17c-.29.71 1.11-8.39 1.44-16.65.56-14.35-15.62-26-15.62-26a29.09 29.09 0 0 1 6.37-3c7.19-2.5 18.43-6.12 25.9-8.15a100.74 100.74 0 0 0 20.48-8.08l-12.59-14.87s-8.52 5.09-33.34 13.3c-14.13 4.58-36.16 8.12-36.16 8.12z" fill="#202b33" opacity=".25" style="mix-blend-mode:hard-light"/><path d="M1177 895c-1 6-4.65 21.12-14.44 21.12-12.18 0-18.28-8.7-20-16.54s-2.61-10.44-11.31-18.28c-6.4-5.76-6.64-10.24-6.32-12.21-19.34 2.62-17.9 17-17.9 17h-22.9c.48 1.31 1.42 5.38-3.73 8.27l-6.15 3.45c1 2.69 2.34 6 4.06 10 9.57 22.63 45 11.69 60.92 20 9 4.7 17.45 17 17.45 17a80.25 80.25 0 0 0 18.67-16.58c8.7-10.44 9.54-23.46 9.54-23.46A84.54 84.54 0 0 1 1177 895z" fill="#fff" opacity=".44"/><path d="M1083.93 885.68s2.61 5.22-3.48 8.7l-6.09 3.48s-3.48-9.57-3.48-12.18zM1238.64 937.89s-22.42 21.77-20.68 34.83 14.8 20 19.15 19.15 10.44-15.67 23.5-18.28 25.24-1.74 26.11-8.7 0-20.43 0-20.43-15.4-.29-26-1.68a161.65 161.65 0 0 1-22.08-4.89z" fill="#202b33" opacity=".25" style="mix-blend-mode:hard-light"/><path d="M1263.21 943.07c-3.54-.45-7-1-10.29-1.62 2.54.51 5.21 1 7.82 1.33zM1366.19 932.91c-4.73 1.45-9.87 2.85-15.38 4.16 5.23-1.2 10.65-2.59 15.24-4.11zM1359.26 953.84a.24.24 0 0 1 0-.08h-.07zM1411.24 934.92a102.92 102.92 0 0 1-16 6.58 81.48 81.48 0 0 0 16-6.58zM1359.4 954l.07.1zM1362.94 951.81c1.16-.47 2.69-1 4.67-1.75l-2 .7c-1 .35-1.89.71-2.67 1.05zM1375.21 947.54c4.24-1.35 9.59-3 16.34-4.95h-.06c-4.6 1.27-10.64 3.13-16.28 4.95zM1239.87 938.25c.8.23 2 .55 3.38.93-1.14-.31-2.25-.61-3.38-.93zM1391.55 942.6c1.27-.35 2.5-.72 3.7-1.09l-1 .32zM1375.21 947.54c-3.08 1-5.58 1.82-7.59 2.52 2.31-.78 4.89-1.64 7.59-2.52zM1412 934.53l-.72.4zM1359.38 954l-.13-.16c-.01.11.09.16.13.16zM1359.29 953.76a25.85 25.85 0 0 1 3.66-2c-2.77 1.18-3.52 1.73-3.66 2zM1366.19 932.91a215 215 0 0 0 25.32-9.46c-5.24 2.29-13.38 5.55-25.32 9.46zM1364.22 986.07a56.4 56.4 0 0 0 1 6.35c-.22-1.23-.68-3.58-1-6.35zM1333.11 940.63c6.28-1 12.18-2.24 17.7-3.55-7.13 1.62-13.88 2.92-17.7 3.55z" fill="#fff" opacity=".25" style="mix-blend-mode:hard-light"/><path d="M1156.23 945.16a78.36 78.36 0 0 0 19.09-16.83c8.7-10.44 9.54-23.46 9.54-23.46l8.82 8.54a38.09 38.09 0 0 1-11.4 24.49c-7 7-19.48 18.67-19.48 18.67l-6.57-11.41M1125.2 868s-2.68 5.48 6 13.31 9.57 10.44 11.31 18.28 7.83 16.54 20 16.54 14.8-23.5 14.8-23.5 2.61-20.89-6.09-23.5-46.02-1.13-46.02-1.13z" fill="#202b33" opacity=".25" style="mix-blend-mode:hard-light"/><path d="M1431.64 901.79c-3.48-3.48-25.24 13.93-25.24 13.93a120.81 120.81 0 0 1-14.9 7.75 80.09 80.09 0 0 0 7.89-3.8l12.61 14.85c21.82-12.43 22.49-29.88 19.64-32.73z" fill="#fff" opacity=".44"/><path d="M728.22 556.91s-13.62-8.62-16.42-23.5 19.55-38.39 9.13-56.93c-7.35-13.09-6-30.84 10.31-36.59s22.86 15.53 23.76 25.79c2.59 29.44-23.18 41.31-30.17 63.13-4.15 12.99 3.39 28.1 3.39 28.1z" fill="#fff" opacity=".2"/><path d="M580.9 762.95s4 15 13.79 35.8c5.74 12.25 20.73 19.2 28.34 18.66l19.67-54.45zM812.44 715.53l-128.67 15.73.93 14.38 10.87.59 18.2 4.1c0 6.72-5.45 13.16-12.16 13.16l-47.66-.5c-.47-.4-17.85 47.29-20.37 56.4 3.34.24 16.66.29 16.66.29 21.34-.62 46.55-2 46.55-2l55.72-4 6.65-.33-22.41 157.72 43.87 4.12 22.83-171.48 24.88 70.54 44.84-8.06z" fill="#202b33" opacity=".62" style="mix-blend-mode:hard-light"/><path fill="#202b33" opacity=".15" style="mix-blend-mode:hard-light" d="M683.77 731.26l128.67-15.73 60.73 150.67-44.84 8.06-37.6-105.99-106.47-29.18-.49-7.83z"/><path d="M652.18 659.84l12.77 39.66 2.72 8.43 55.27-74-18.62-18.4-34.8 44.41-35.75-35h-.42a158.56 158.56 0 0 1 18.83 34.9z" fill="#202b33" opacity=".42" style="mix-blend-mode:hard-light"/><path d="M736.6 994l-4.45 24.48h73.68c7.92-.07 9-10.8 1.41-13.06L768 993.76z" fill="#202b33" opacity=".62" style="mix-blend-mode:hard-light"/><path fill="#fff" d="M741.91 993.75l22.07-.45 3.51-19.27-21.17-1.52-4.41 21.24z"/><path d="M844 888.83l1 29 72.37-13.44c7.94-1.4 7.65-14.88-.36-15.87l-43.15-6.08z" fill="#202b33" opacity=".62" style="mix-blend-mode:hard-light"/><path fill="#fff" d="M846.83 888.21l22.24-4.73-6.55-15.34-21.98 3.93 6.29 16.14z"/><path fill="none" d="M586.68 495.89l4.59-.07-4.6.17.01-.1z"/><path d="M545.75 472.51c5-8.67 13-9.8 21.93-8.27 17.7 3 29.49.09 39.7-10.73l11.7 15.25a16.66 16.66 0 0 1-9.48 26.36l-18.32.7-4.59.08v.1h-.2c-.54 1.63-1.06 8.69-1.38 10.84-1.62 10.87-6.36 17.45-15 19.84l-.21-3.67a7.48 7.48 0 0 0-8.31-6.47c-4.19.4-6.57 3.89-6.17 7.87s6.74 9.79 10.32 11.87c2.26 3.61 2 8.27-.66 12.68-3.39 5.52-9.73 8.73-12.23 9.46 0 0-.26-9.31-6-15.95-7.53-8.7-17.07-22.71-19.28-33.41-3.69-17.94 2.69-34.79 18.18-36.55z" fill="#fff" opacity=".44"/><path d="M565.11 549c2.7-4.41 2.91-9.07.66-12.68-3.58-2.08-9.92-7.89-10.32-11.87s2-7.46 6.17-7.87a7.48 7.48 0 0 1 8.31 6.47l.21 3.67c8.61-2.39 13.34-9 15-19.84.32-2.14.84-9.21 1.38-10.84h.2l4.6-.18 18.32-.7h.25c3.15 5.33 7.24 20 7.66 26.61 1.37 21.67-10.43 41.8-40.51 42.07l11.17 22.06h-42.28l7-27.44c2.45-.78 8.8-3.99 12.18-9.46zM683.79 732.37l19.62 2.63c6.28-.11 14.35 4.24 13.73 10.48l-.59 6c-.45 4.6-9.26 10.56-9.26 10.56v-8.15a3.17 3.17 0 0 0-3.15-3.16c-5.89-.05-19-.06-19-.06s-1.48-18.31-1.35-18.3z" fill="#fff"/><path d="M730.57 863.13l22.84-49.74s-89.41 8.14-120.47 5.92c3.42-8.36 20.38-56.4 20.38-56.4h48.88a12.16 12.16 0 0 0 12.16-12.16h-30.82v-.45l-131.32 2.92L527 612.91a33.33 33.33 0 0 0-34.37 17.5l64.19 232.72h33.16l-49.45 155.37h14.21l66.4-155.37h34.33l62.1 155.37h14.21l-45.12-155.37zm-135.88-64.42c-9.74-20.78-13.79-35.8-13.79-35.8h61.8L623 817.37c-7.58.54-22.57-6.37-28.31-18.66z" fill="#fff" opacity=".44"/><path fill="#fff" d="M717.76 622.56l-4.72-26.42-4.19 3.81-.24 8.98-2.33 8.82 14.92 14.38 12.99-9.57h-16.43zM740.32 617.12l3.52-3.12-2.86-1.13-.66 4.25z"/><path fill="#202b33" opacity=".62" style="mix-blend-mode:hard-light" d="M709.13 576.04h37.58l-7.24 46.52h-21.71l-8.63-46.52z"/><path fill="#fff" d="M746.47 590.69l-16.3 1.42 2.54 21.18 11.13.71 2.63-23.31zM708.85 599.95l11.75-10.44.56 6.44-10.1 12.37-2.21-8.37z"/><path d="M533.87 601.57a19.87 19.87 0 0 1 23.92-4.57 24.35 24.35 0 0 1 13.06 18l16 105.79 88.08 9.59-22.72-70.57c-8.9-23.66-27.7-49.35-42.24-61.67s-18.68-12.32-18.68-12.32h-45.13l-5.48 4.82a35.75 35.75 0 0 0-11.6 20.64l-1.2 6.72c.78-8 2.71-12.69 5.99-16.43z" fill="#202b33" opacity=".25" style="mix-blend-mode:hard-light"/><path d="M557.79 597a19.87 19.87 0 0 0-23.92 4.62 22.93 22.93 0 0 0-5.34 19.16l23.68 132.49 132.91-2.51-1.59-19.36-96.71-10.53L570.85 615a24.35 24.35 0 0 0-13.06-18z" fill="#202b33" opacity=".42" style="mix-blend-mode:hard-light"/><g clip-path="url(#b)" fill="#202b33"><path d="M1543.87 588.83a35.63 35.63 0 0 0-20.51 21.62l-4.89 17.55a155.12 155.12 0 0 0 1.69-17.34c.34-11.12.5-20.63.54-28.71l23.38-14.08a28.94 28.94 0 0 0 13.74-20.87l2.74-20.08-16.56 6.61a28.94 28.94 0 0 0-16.66 17.56l-6.67 24c-.09-23.73-1.27-32.64-1.34-33.14l-.73.1a28.93 28.93 0 0 0-9.86-21.66L1493.51 507l-3.6 17.43a28.94 28.94 0 0 0 5.47 23.58l18.62 21.46c.13 10.14 0 23.58-.48 41-.39 12.86-3.68 30.86-8.56 51.36l-1.72-21.16a34.21 34.21 0 0 0-15.41-24.11l-17.71-11.36-1.31 23.92a34.21 34.21 0 0 0 11.29 27.31l21.42 19.26c-5 19.46-11.1 40.51-17.32 61.24l-2.35-28.85a34.21 34.21 0 0 0-15.4-24.08l-17.71-11.36-1.31 23.92a34.21 34.21 0 0 0 11.29 27.31l23.16 20.82a7578.68 7578.68 0 0 1-9.71 31.72c-6.64 21.57-12.54 40.77-16.79 56l2.69-20.36c1-12-2.43-23.83-9.43-32.29L1433.92 762l-7 27.91c-3 12.07-1.34 25 4.6 35l18.12 30.82c-9.44 46-3.29 75.48-3 76.82l6.47-1.4c-.07-.34-7.22-34.87 5.81-86.3 1-3.88 2.14-8.16 3.44-12.77l36.76-11.53a37.34 37.34 0 0 0 23.59-22l9.54-24.35-22.73 3.25a37.34 37.34 0 0 0-26.23 17l-20.8 37.24c4.16-14.75 9.77-33 16-53.31 4.46-14.5 9.19-29.87 13.8-45.33l28.1-11.57a34.21 34.21 0 0 0 19.78-22l6.78-23-20.49 4.77a34.21 34.21 0 0 0-22.6 17.55l-4.51 10c6.08-21.32 11.55-42.06 15.35-60.12l29.22-17.6a35.63 35.63 0 0 0 16.92-25.71l3.37-24.72z" opacity=".13" style="mix-blend-mode:hard-light"/><path d="M1431.23 841.91c-4.23-11.91-11.23-28.7-19.31-48.13-3.07-7.4-6.28-15.11-9.5-22.94l15.46-16.84a25.46 25.46 0 0 0 6.43-21l-2.67-17.63-12.31 9.63a25.46 25.46 0 0 0-9.71 19l.3 20.73c-6-14.74-11.92-29.7-16.94-43.58l14.28-15.54a25.46 25.46 0 0 0 6.43-21l-2.69-17.7-12.31 9.67a25.46 25.46 0 0 0-9.71 19l.21 14.84c-4.92-14.47-8.5-27.22-9.68-36.52-3.61-28.55-4.18-42.78-4.25-47.87l11.42-16a21.54 21.54 0 0 0 2.38-17.86l-3.9-12.66-10.35 11a21.54 21.54 0 0 0-5.67 17.72l2.13 15.39-1.51-.06c0 .23-.1 2.76.18 8.57l-6.73-17.53a21.54 21.54 0 0 0-13.59-11.83l-12.71-3.77 3.45 14.69a21.54 21.54 0 0 0 11.66 14.5l18.2 8.72c.53 8 1.61 20.17 3.83 37.66.4 3.18 1.08 6.73 2 10.6l-4.05-10.6a26.52 26.52 0 0 0-16.77-14.57l-15.65-4.58 4.25 18.08a26.52 26.52 0 0 0 14.36 17.85l22.54 10.79c3.95 12.66 9.23 27.06 15 41.88l-3.06-5.36a25.46 25.46 0 0 0-18-11.4l-15.52-2.08 6.65 16.54a25.46 25.46 0 0 0 16.2 14.87l21.27 6.47c4.54 11.21 9.17 22.35 13.53 32.84q2.87 6.91 5.53 13.34l-5.41-9.48a27.79 27.79 0 0 0-19.63-12.44l-16.91-2.32 7.26 18.06a27.79 27.79 0 0 0 17.7 16.22l24.14 7.34c2.58 6.44 4.81 12.21 6.57 17.11 13.29 37.13 9.79 68 9.76 68.34l5.47.66c.15-1.26 3.72-32.39-10.05-70.82z" opacity=".25" style="mix-blend-mode:hard-light"/></g><path d="M1391.49 942.61h.06zM1395.11 941.54h.14z" fill="#202b33" opacity=".52" style="mix-blend-mode:hard-light"/><path d="M1373.41 876.5v19H1386l2.83 29.1 2.69-1.14a120.81 120.81 0 0 0 14.9-7.75s21.76-17.41 25.24-13.93c2.85 2.85 2.18 20.3-19.67 32.74h-.07l-.11.06-.54.29a81 81 0 0 1-15.44 6.4l-.42.13h-.13l-.29.09-1.53.47-1.88.54-1 .28 6.47 66.62h-1.69a9.23 9.23 0 0 0-9.44 9h112.47a9.23 9.23 0 0 0-9.44-9h-1.42l11.07-114h12.82v-19z" fill="#202b33" opacity=".62" style="mix-blend-mode:hard-light"/><path d="M1399.39 919.66a80.07 80.07 0 0 1-7.89 3.8l-.29.13a80.42 80.42 0 0 0 8.18-3.93z" fill="#202b33" opacity=".52" style="mix-blend-mode:hard-light"/><path fill="#202b33" opacity=".25" style="mix-blend-mode:hard-light" d="M1232.54 701.5h-33.56l-11.57-56.9h56.7l-11.57 56.9z"/><path fill="#202b33" opacity=".52" style="mix-blend-mode:hard-light" d="M1206.41 644.5h-9l-3.86-28.91 8.59-1.25 4.27 30.16z"/><path fill="#fff" opacity=".44" d="M1191.701 605.334l8.599-1.256 1.525 10.439-8.599 1.256z"/><path fill="#202b33" opacity=".52" style="mix-blend-mode:hard-light" d="M1221.41 644.5h9l10.31-27.54-8.15-3.01-11.16 30.55z"/><path fill="#fff" opacity=".44" d="M1240.975 617.233l-8.152-3.01 3.655-9.897 8.152 3.01z"/><path fill="#202b33" opacity=".52" style="mix-blend-mode:hard-light" d="M1221.41 644.5h-11l-.89-41.7 11.13-.22.76 41.92z"/><path fill="#fff" opacity=".44" d="M1216.41 591.37l-3.6.07-3.31 11.35 10.62-.21-3.71-11.21z"/><path fill="#202b33" d="M1214.47 585.5l-1.76 6.11 3.75-.08-1.99-6.03zM820.41 687.5h2a14 14 0 0 1 14 14h-30a14 14 0 0 1 14-14z" opacity=".52" style="mix-blend-mode:hard-light"/><path d="M1367.41 1018.5H1253a9.88 9.88 0 0 1 1.21-5.45c3-5.82 6.72-9 13.2-8.2 1.82.21 6.44 3.16 8.39 3.38 17.72 1.94 34.85 0 38.82-19.74 5.09-25.31 21.11-34.94 31-34.94 10.8 0 20.8-3.89 26.8 17s-2 46.92-2 46.92" opacity=".25" fill="url(#c)" style="mix-blend-mode:hard-light"/><g opacity=".52" style="mix-blend-mode:hard-light" fill="#202b33"><path d="M690.3 952.19v66.31h10.98v-38.72l-10.98-27.59zM702.28 863.5H691.3v14.67l10.98 37.98V863.5z"/></g><path fill="#fff" opacity=".44" d="M672.44 701.38l-4.03 5.49.86 6.05 5.51 17.12h18.96l118.7-14.51.2.5.38-.05 5.67 14.06h511.81v-28.66H672.44z"/><path d="M1000.51 316.29h-80.32c0-18.59 16.71-28.53 33.66-33.66 15.84-4.79 32.37-15.6 32.37-19.42h29c0 3.82 16.52 14.63 32.37 19.42 17 5.12 33.66 15.07 33.66 33.66h-80.74" fill="#202b33" opacity=".15" style="mix-blend-mode:hard-light"/><path d="M1018.22 316.29a17.91 17.91 0 0 1-35 .05z" fill="#fff" opacity=".86" style="mix-blend-mode:hard-light"/><path fill="#202b33" d="M996.22 192.5h9v70.71h-9z" opacity=".15" style="mix-blend-mode:hard-light"/><g clip-path="url(#d)"><path fill="#202b33" opacity=".52" style="mix-blend-mode:hard-light" d="M1040.98 540.24h15.07v2.24h-15.07zM1040.98 550.74h35.51v2.24h-35.51zM1040.98 561.23h35.51v2.24h-35.51zM1040.98 571.73h35.51v2.24h-35.51z"/><path d="M1027.17 523.39v67.94l63.24-.25v-67.94zm13.83 16.85h15.07v2.24H1041zm35.5 33.76H1041v-2.24h35.51zm0-10.5H1041v-2.24h35.51zm0-10.5H1041v-2.24h35.51zM916.76 673.47h51.94v-55.78h-51.94zm24.69-46.17h15.07v2.24h-15.07zm0 7.37h19.88v2.24h-19.88zm0 16h15.07V653h-15.07zm0 7.05h19.88V660h-19.88zm-17.61-28.1a5.72 5.72 0 0 1 .44-1q.13-.25.29-.48a5.8 5.8 0 0 1 .71-.85q.2-.2.41-.37a5.75 5.75 0 0 1 3.67-1.32 5.83 5.83 0 0 1 .59 0 5.73 5.73 0 0 1 2.16.67 5.8 5.8 0 0 1 2.32 2.32 5.78 5.78 0 0 1 0 5.5 5.8 5.8 0 0 1-.62.92q-.18.21-.37.41a5.77 5.77 0 0 1-9.73-2.92 5.81 5.81 0 0 1 .14-2.88zm-.23 24.94a5.74 5.74 0 0 1 .67-2.16q.13-.25.29-.48a6.51 6.51 0 0 1 1.11-1.23 5.75 5.75 0 0 1 3.67-1.32 5.83 5.83 0 0 1 .59 0 5.73 5.73 0 0 1 2.16.67 5.8 5.8 0 0 1 2.32 2.32 5.78 5.78 0 0 1 0 5.5 5.8 5.8 0 0 1-.62.92q-.18.21-.37.41a5.77 5.77 0 0 1-9.73-2.92 5.81 5.81 0 0 1-.12-1.16 5.89 5.89 0 0 1 .03-.51z" fill="#fff" opacity=".76" style="mix-blend-mode:hard-light"/><path fill="#fff" opacity=".86" style="mix-blend-mode:hard-light" d="M916.76 694.95h51.94v13.14h-51.94z"/><path fill="#202b33" opacity=".33" style="mix-blend-mode:hard-light" d="M977.36 608.07h51.94v9.62h-51.94zM1038.27 608.07h51.94v9.62h-51.94zM916.76 685.33h51.94v9.62h-51.94z"/><path d="M916.22 523.14v67.94h110.86v-67.94zm94 9.82a6.06 6.06 0 1 1-5.86 6.05 6 6 0 0 1 5.87-6.01zm-86.88 50.46l23-25.09 16.14 17.47 26.13-29.22 31.3 36.92zM977.36 617.69v55.78h51.94v-55.78zm24.64 9.61h15.07v2.24H1002zm0 23.4h15.07v2.3H1002zm-7.69 9.62h-10.22v-9.94h10.26zm0-23.08h-10.22v-9.94h10.26zm27.61 22.76H1002v-2.24h19.88zm0-23.08H1002v-2.24h19.88z" fill="#fff" opacity=".76" style="mix-blend-mode:hard-light"/><path fill="#202b33" opacity=".33" style="mix-blend-mode:hard-light" d="M916.76 608.07h51.94v9.62h-51.94z"/><path d="M1038.27 617.69v90.41h51.94v-90.41zm43.6 79.51h-35.59v-2.24h35.59zm0-9.94h-35.59v-20.2h35.59zm0-29.82h-35.59v-2.24h35.59zm0-9.94h-35.59v-20.2h35.59z" fill="#fff" opacity=".76" style="mix-blend-mode:hard-light"/><path d="M977 682.45v25.65h52v-25.65zm16.35 18.27h-9.3v-9.62h9.3zm14.43 0h-9.3v-9.62h9.3zm14.11 0h-9.3v-9.62h9.3z" fill="#fff" opacity=".86" style="mix-blend-mode:hard-light"/><ellipse cx="1010.23" cy="539.02" rx="5.86" ry="6.05" fill="#202b33" opacity=".62" style="mix-blend-mode:hard-light"/><path fill="#202b33" opacity=".52" style="mix-blend-mode:hard-light" d="M923.35 583.42l22.95-25.09 16.15 17.47 26.13-29.22 31.3 36.92-96.53-.08zM1002.04 627.3h15.07v2.24h-15.07zM1002.04 650.71h15.07v2.24h-15.07zM984.09 650.39h10.26v9.94h-10.26zM984.09 627.3h10.26v9.94h-10.26zM1002.04 657.76h19.88V660h-19.88zM1002.04 634.68h19.88v2.24h-19.88zM941.45 627.3h15.07v2.24h-15.07zM941.45 650.71h15.07v2.24h-15.07zM941.45 657.76h19.88V660h-19.88zM941.45 634.68h19.88v2.24h-19.88zM1046.28 627.3h35.59v20.2h-35.59zM1046.28 694.95h35.59v2.24h-35.59zM1046.28 667.06h35.59v20.2h-35.59zM1046.28 655.2h35.59v2.24h-35.59zM984.09 691.1h9.3v9.62h-9.3zM998.52 691.1h9.3v9.62h-9.3zM1012.62 691.1h9.3v9.62h-9.3z"/><path fill="none" d="M1038.27 617.69h51.94v90.41h-51.94zM977.36 617.69h51.94v55.78h-51.94zM916.22 523.14h110.86v67.94H916.22zM977.04 682.45h51.94v25.65h-51.94z"/><path d="M1027.07 591.08h63.34v-67.94h-63.34zm13.93-50.84h15.07v2.24H1041zm0 10.5h35.51V553H1041zm0 10.5h35.51v2.24H1041zm0 10.5h35.51V574H1041z" fill="none"/><path d="M1009.52 506.91H874.18v205.18h256.52V506.91zM968.7 673.47h-51.94v-55.78h51.94zm60.3 34.62h-52v-25.64h52zm.32-34.62h-51.96v-55.78h51.94zm60.91 34.62h-51.94v-90.4h51.94zm.2-117H916.22v-67.95h174.19z" fill="#202b33" opacity=".3" style="mix-blend-mode:hard-light"/><path d="M925.27 635.46a5.77 5.77 0 0 0 8.16 0q.2-.2.37-.41a5.8 5.8 0 0 0 .62-.92 5.77 5.77 0 0 0-4.48-8.49 5.83 5.83 0 0 0-.59 0 5.75 5.75 0 0 0-3.67 1.32q-.21.18-.41.37a5.8 5.8 0 0 0-.71.85q-.16.23-.29.48a5.75 5.75 0 0 0-.7 2.75 5.75 5.75 0 0 0 1.69 4.08zM925.27 659.28a5.77 5.77 0 0 0 8.16 0q.2-.2.37-.41a5.8 5.8 0 0 0 .62-.92 5.77 5.77 0 0 0-4.48-8.49 5.83 5.83 0 0 0-.59 0 5.66 5.66 0 0 0-4.26 1.88 5.84 5.84 0 0 0-.53.66q-.16.23-.29.48a5.74 5.74 0 0 0-.67 2.16 5.89 5.89 0 0 0 0 .59 5.75 5.75 0 0 0 1.69 4.08z" fill="#202b33" opacity=".52" style="mix-blend-mode:hard-light"/><path d="M874.44 482.08v25h130.09c.06-.09 5 0 5 0h121.17v-25zm59.32 17.56h-49.9v-10.12h49.9zm145.81 0h-10.11v-10.12h10.11zm20.23 0h-10.11v-10.12h10.11zm20.23 0h-10.11v-10.12H1120z" fill="#fff" opacity=".76" style="mix-blend-mode:hard-light"/><path fill="#202b33" opacity=".52" style="mix-blend-mode:hard-light" d="M1109.92 489.52h10.11v10.11h-10.11zM1089.69 489.52h10.11v10.11h-10.11zM1069.46 489.52h10.11v10.11h-10.11zM933.77 499.64h-49.9v-10.12h49.9z"/><circle cx="929.35" cy="655.2" r="5.77" fill="#202b33" opacity=".52" style="mix-blend-mode:hard-light"/></g></g></svg>