<svg xmlns="http://www.w3.org/2000/svg" width="2000" height="1125" viewBox="0 0 2000 1125"><defs><clipPath id="a"><path d="M3268.9 572.53v-23a.89.89 0 0 0-.89-.89h-32a.89.89 0 0 0-.89.89v32.86l9-9H3268a.89.89 0 0 0 .9-.86zm10.36-14.86h-5.86v20.25h-29.25v5.86a.89.89 0 0 0 .89.89h26.11l9 9v-35.12a.89.89 0 0 0-.89-.89z" fill="#202b33"/></clipPath><clipPath id="b"><path fill="none" d="M659.99 379.16h680v639h-680z"/></clipPath><clipPath id="c"><path d="M760.44 820.36c35.68 2.48 66.46-24.58 68.91-60.58s-24.36-67.06-60-69.54-66.46 24.58-68.91 60.58 24.32 67.07 60 69.54z" fill="none" clip-rule="evenodd"/></clipPath></defs><title>artboard</title><g style="isolation:isolate"><g opacity=".52" style="mix-blend-mode:hard-light" data-name="Artboard 4"><path d="M3268.9 572.53v-23a.89.89 0 0 0-.89-.89h-32a.89.89 0 0 0-.89.89v32.86l9-9H3268a.89.89 0 0 0 .9-.86zm10.36-14.86h-5.86v20.25h-29.25v5.86a.89.89 0 0 0 .89.89h26.11l9 9v-35.12a.89.89 0 0 0-.89-.89z" fill="#202b33"/><g clip-path="url(#a)"><path fill="#202b33" d="M1394.65 436.16h2322v378h-2322z"/></g></g><g data-name="Artboard 3"><path d="M1642.5 1032.5h-1285a7 7 0 0 1 0-14h1285a7 7 0 0 1 0 14z" fill="#202b33" opacity=".62" style="mix-blend-mode:hard-light"/><path d="M1293.78 681.75A65.52 65.52 0 0 1 1340 622V378.16H660v400.91l8.5-3.28 9.39 4.29 4.8-1.72a86.1 86.1 0 0 1 47.32-102v-143.2H985v144H801.35a84.66 84.66 0 0 1 46.17 59H985v165H730v-68.3c-.38-.17-.77-.32-1.15-.49a84.19 84.19 0 0 1-41.67-41.8l-4.74 1.89-4.32 9.48-18.12 7.33v208.89h70v-107h255v107h30v-134h255v134h70V746.83a65.25 65.25 0 0 1-46.22-65.08zM1270 873.16h-255v-165h255zm0-175h-255v-165h255z" fill="#202b33" opacity=".3" style="mix-blend-mode:hard-light"/><g clip-path="url(#b)"><path fill="#202b33" opacity=".33" style="mix-blend-mode:hard-light" d="M729.99 503.16h255v30h-255z"/><path d="M985 533.16H730v143.2a84.25 84.25 0 0 1 69.89.08c.5.23 1 .48 1.47.72H985zm-212.84 118a18 18 0 1 1 18.06-17.94 18 18 0 0 1-18.06 17.96zm0-57a18 18 0 1 1 18.06-17.94 18 18 0 0 1-18.06 17.96zm57 57a18 18 0 1 1 18.06-17.94 18 18 0 0 1-18.06 17.96zm0-57a18 18 0 1 1 18.06-17.94 18 18 0 0 1-18.06 17.96zm57 57a18 18 0 1 1 18.06-17.94 18 18 0 0 1-18.06 17.96zm0-57a18 18 0 1 1 18.06-17.94 18 18 0 0 1-18.06 17.96zm57 57a18 18 0 1 1 18.06-17.94 18 18 0 0 1-18.06 17.96zm0-57a18 18 0 1 1 18.06-17.94 18 18 0 0 1-18.06 17.96zM729.99 443.16h222v30h-222z" fill="#fff" opacity=".86" style="mix-blend-mode:hard-light"/><path fill="#202b33" opacity=".33" style="mix-blend-mode:hard-light" d="M951.99 443.16h33v30h-33zM1014.99 503.16h255v30h-255z"/><path d="M1015 533.16v165h255v-165zm85 36h57v7h-57zm0 22h72v7h-72zm-37.11 11a19 19 0 1 1 19.06-18.94 19 19 0 0 1-19.07 18.96zm37.11 11h142v7h-142zm146 58h-80v-24h80zM1015 708.16v165h255v-165zm85 36h57v7h-57zm0 22h72v7h-72zm-37.11 11a19 19 0 1 1 19.06-18.94 19 19 0 0 1-19.07 18.96zm37.11 11h142v7h-142zm146 58h-80v-24h80zM1015 884.16v165h255v-165zm85 36h57v7h-57zm0 22h72v7h-72zm-37.11 11a19 19 0 1 1 19.06-18.94 19 19 0 0 1-19.07 18.96zm37.11 11h142v7h-142zm146 58h-80v-24h80z" fill="#fff" opacity=".86" style="mix-blend-mode:hard-light"/><path fill="none" stroke="#202b33" stroke-miterlimit="10" stroke-width="2" opacity=".33" style="mix-blend-mode:hard-light" d="M1014.99 1028.16h255"/><path d="M834.87 706.16a85.79 85.79 0 0 1 12.65 30H985v-30z" fill="#202b33" opacity=".33" style="mix-blend-mode:hard-light"/><path d="M730 911.16v165h255v-165zm85 36h57v7h-57zm0 22h72v7h-72zm-37.11 11a19 19 0 1 1 19.06-18.94 19 19 0 0 1-19.07 18.96zm37.11 11h142v7H815zm146 58h-80v-24h80zM847.52 736.16a85.76 85.76 0 0 1-.11 36H872v7h-26.44a87.13 87.13 0 0 1-4 10.54c-.69 1.52-1.43 3-2.2 4.46H887v7h-51.7a85.53 85.53 0 0 1-12.45 15H957v7H815v-.31a84.65 84.65 0 0 1-85 10v68.31h255v-165zm113.48 138h-80v-24h80z" fill="#fff" opacity=".86" style="mix-blend-mode:hard-light"/><path fill="#202b33" opacity=".52" style="mix-blend-mode:hard-light" d="M1217.99 452.16h52v13h-52zM1136.99 452.16h52v13h-52zM1056.99 452.16h52v13h-52z"/><path fill="none" stroke="#202b33" stroke-miterlimit="10" stroke-width="2" opacity=".33" style="mix-blend-mode:hard-light" d="M1202.99 443.16v30M1122.99 443.16v30"/></g><path fill="#202b33" opacity=".16" style="mix-blend-mode:hard-light" d="M564.23 845.72l7.05.44.11-3.1-7.16 2.66z"/><circle cx="1062.94" cy="583.18" r="19" transform="rotate(-89.82 1062.942 583.175)" fill="#202b33" opacity=".52" style="mix-blend-mode:hard-light"/><path fill="#202b33" opacity=".52" style="mix-blend-mode:hard-light" d="M1099.99 569.16h57v7h-57zM1099.99 591.16h72v7h-72zM1099.99 613.16h142v7h-142zM1165.99 647.16h80v24h-80z"/><circle cx="1062.94" cy="758.18" r="19" transform="rotate(-89.82 1062.941 758.176)" fill="#202b33" opacity=".52" style="mix-blend-mode:hard-light"/><path fill="#202b33" opacity=".52" style="mix-blend-mode:hard-light" d="M1099.99 744.16h57v7h-57zM1099.99 766.16h72v7h-72zM1099.99 788.16h142v7h-142zM1165.99 822.16h80v24h-80z"/><circle cx="1062.94" cy="934.18" r="19" transform="rotate(-89.82 1062.942 934.178)" fill="#202b33" opacity=".52" style="mix-blend-mode:hard-light"/><path fill="#202b33" opacity=".52" style="mix-blend-mode:hard-light" d="M1099.99 920.16h57v7h-57zM1099.99 942.16h72v7h-72zM1099.99 964.16h142v7h-142zM1165.99 998.16h80v20h-80z"/><circle cx="772.22" cy="576.18" r="18" transform="rotate(-89.82 772.219 576.175)" fill="#202b33" opacity=".52" style="mix-blend-mode:hard-light"/><circle cx="829.22" cy="576.18" r="18" transform="rotate(-89.82 829.218 576.176)" fill="#202b33" opacity=".52" style="mix-blend-mode:hard-light"/><circle cx="886.22" cy="576.18" r="18" transform="rotate(-89.82 886.218 576.177)" fill="#202b33" opacity=".52" style="mix-blend-mode:hard-light"/><circle cx="943.22" cy="576.18" r="18" transform="rotate(-89.82 943.218 576.177)" fill="#202b33" opacity=".52" style="mix-blend-mode:hard-light"/><circle cx="772.22" cy="633.18" r="18" transform="rotate(-89.82 772.218 633.175)" fill="#202b33" opacity=".52" style="mix-blend-mode:hard-light"/><circle cx="829.22" cy="633.18" r="18" transform="rotate(-89.82 829.218 633.176)" fill="#202b33" opacity=".52" style="mix-blend-mode:hard-light"/><circle cx="886.22" cy="633.18" r="18" transform="rotate(-89.82 886.217 633.176)" fill="#202b33" opacity=".52" style="mix-blend-mode:hard-light"/><circle cx="943.22" cy="633.18" r="18" transform="rotate(-89.82 943.217 633.177)" fill="#202b33" opacity=".52" style="mix-blend-mode:hard-light"/><path fill="#202b33" opacity=".52" style="mix-blend-mode:hard-light" d="M880.99 850.16h80v24h-80z"/><circle cx="777.94" cy="961.18" r="19" transform="rotate(-89.82 777.946 961.177)" fill="#202b33" opacity=".52" style="mix-blend-mode:hard-light"/><path fill="#202b33" opacity=".52" style="mix-blend-mode:hard-light" d="M814.99 947.16h57v7h-57zM814.99 969.16h72v7h-72zM814.99 991.16h142v7h-142zM847.4 772.16q-.76 3.51-1.84 7H872v-7zM839.39 794.16q-1.91 3.62-4.1 7H887v-7zM822.84 816.16a85.53 85.53 0 0 1-7.85 6.69v.31H957v-7z"/><path d="M660 288.29v90h350.78c.19-.31 15.56 0 15.56 0H1340v-90zm182 60H694v-30h148zm344 0h-30v-30h30zm60 0h-30v-30h30zm60 0h-30v-30h30z" fill="#fff" opacity=".86" style="mix-blend-mode:hard-light"/><path d="M842 348.29H694v-30h148zM1275.99 318.29h30v30h-30zM1215.99 318.29h30v30h-30zM1155.99 318.29h30v30h-30z" fill="#202b33" opacity=".52" style="mix-blend-mode:hard-light"/><path fill="#202b33" opacity=".62" style="mix-blend-mode:hard-light" d="M1057.23 225.6l6 62.82h53.97l2.9-56.61 17.75 20.89 3.48 34.15h11.31l.48-40.32-32.02-43.37-57.66-2.88-30.34-18.12-21-37-7 4 15 40"/><path d="M1010.14 132.78l2.11 12.66-8.16 3.72-.05-14a2.94 2.94 0 0 1 .52-2.28 3.57 3.57 0 0 1 4.56-1.27 1.66 1.66 0 0 1 1.02 1.17z" fill="#fff"/><path d="M998.49 132.78l-2.11 12.66 8.16 3.72.05-14a2.94 2.94 0 0 0-.52-2.28 3.57 3.57 0 0 0-4.56-1.27 1.66 1.66 0 0 0-1.02 1.17zM1141 292.18l.37-5.33h11.31l.3 5.07a2.64 2.64 0 0 1-2.54 2.82l-6.71.16a2.64 2.64 0 0 1-2.73-2.72zM855 292.18l.37-5.33h11.31l.3 5.07a2.64 2.64 0 0 1-2.54 2.82l-6.71.16a2.64 2.64 0 0 1-2.73-2.72zM1083.86 172.16l-.15-.28a8.4 8.4 0 0 1-3.32-6v-.1l-.1-.19c0 .19.08.37.1.56a8.48 8.48 0 0 0 3.47 6.01z" fill="#fff"/><path d="M1113.31 163.62c-1.75-3.07-2.74-3.53-2.26-5.68l.28-1.24a5.78 5.78 0 0 0-4.29-7l-.59-.13a4.43 4.43 0 0 1-3.21-2.86l-.25-.7a3.81 3.81 0 0 0-5.93-1.82l-.53.41a5.55 5.55 0 0 1-6.2.39l-2.92-1.71a4 4 0 0 0-5.74 1.88l-1 2.19a4.47 4.47 0 0 1-4.51 2.46 6.43 6.43 0 0 0-6.45 9.1 24.12 24.12 0 0 0 1.29 2.43l.33.08c.18-.44.35-.85.52-1.23a2.13 2.13 0 0 1 2.48-1.19 8.17 8.17 0 0 1 6 6.53l.1.19v.1a8.4 8.4 0 0 0 3.32 6l.15.28a19.74 19.74 0 0 0 5.76 2.86l.17-1.77a3.46 3.46 0 0 1 3.89-3 3.23 3.23 0 0 1 2.64 3.89c-.26 1.91-3.25 4.61-4.91 5.56a6.35 6.35 0 0 0-1 4.4l.11.21a6.57 6.57 0 0 0 .44 1.38 16 16 0 0 0 2.83 4.6c-.18-.48.51-2.09 9.46-7.22 12.91-7.36 11.71-16.39 10.02-19.39z" fill="#fff" opacity=".4"/><path d="M1094 190.49l-.2-.19a.32.32 0 0 0 .2.19z" fill="#fff"/><path d="M1097.09 201.83l-3.31-11.53c-.88-1.48-2.25-3.07-2.88-4.47a6.52 6.52 0 0 1-.51-1.71 6.35 6.35 0 0 1 1-4.4c1.66-.95 4.65-3.65 4.91-5.56a3.23 3.23 0 0 0-2.64-3.89 3.46 3.46 0 0 0-3.89 3l-.17 1.77a19.74 19.74 0 0 1-5.76-2.86 8.48 8.48 0 0 1-3.5-6c0-.19-.07-.38-.1-.56a8.17 8.17 0 0 0-6-6.53 2.13 2.13 0 0 0-2.48 1.19c-.17.38-.35.79-.52 1.23a48.57 48.57 0 0 0-3 10.4c-1 10 5.11 18.84 13.85 20.56l-1.84 8.46z" fill="#fff"/><path fill="#202b33" opacity=".62" style="mix-blend-mode:hard-light" d="M949.85 225.6l-5 62.82h-53.96l-2.9-56.61-17.75 20.89-3.48 34.15h-11.31l-.48-40.32 32.02-43.37 58-7 30-14 21-36 7 3-15 40-38 36"/><path d="M952.19 223.08l-2.37 2.16-2.61 33.69 5.19-2.06a11.42 11.42 0 0 0 6.57-14.4z" fill="#fff" opacity=".4"/><path d="M915.37 167.14a3.23 3.23 0 0 0-2.64 3.89 2.69 2.69 0 0 0 .12.48 2.51 2.51 0 0 1-.08-.35 3.23 3.23 0 0 1 2.64-3.89 3.45 3.45 0 0 1 3.7 2.24 3.45 3.45 0 0 0-3.74-2.37zM918.42 182v.35a6.09 6.09 0 0 0 .11-3.83 6.09 6.09 0 0 1-.11 3.48zM919.48 172a24.88 24.88 0 0 0 5.34-1.83c-2 .64-4 1.25-5.35 1.7z" fill="none"/><path fill="#010e2d" d="M916.32 199.73v-.02l-4.78.57 4.78-.55z"/><path d="M918.18 182.83c.08-.18.13-.35.2-.52v-.35a6.09 6.09 0 0 0 .07-3.48v-.14c0-.12-.08-.24-.12-.36a7.07 7.07 0 0 0-.64-1.26c-1.56-.89-4.29-3.33-4.83-5.2a2.69 2.69 0 0 1-.12-.48 3.23 3.23 0 0 1 2.64-3.89 3.45 3.45 0 0 1 3.74 2.36 3.53 3.53 0 0 1 .19.75l.15 1.63c2.06.14 3.31-1.06 5.35-1.7a45 45 0 0 0 13.15-10 20.39 20.39 0 0 1 2 4.4 46.17 46.17 0 0 1 .64-4.6c-.29-9.61-9.63-15.65-20.85-15.79-15.75-.2-21.75 13.38-19.61 24.5a73.42 73.42 0 0 1 .72 21.79c-1.32 9.67-2.93 11.34-2.93 11.34l13.56-1.55 5.61-15zM942.36 187.49A47 47 0 0 1 940 177a17.59 17.59 0 0 1-12.44 12.24l3.72 8.66 12.2-1.61s1.29-1.97-1.12-8.8z" fill="#fff" opacity=".4"/><path d="M940 177a20.71 20.71 0 0 0 .81-8.19 21 21 0 0 0-.89-4.27 20.39 20.39 0 0 0-2-4.4 45 45 0 0 1-13.15 10 24.88 24.88 0 0 1-5.34 1.83v-.14l-.15-1.63a3.53 3.53 0 0 0-.19-.75 3.45 3.45 0 0 0-3.7-2.24 3.23 3.23 0 0 0-2.64 3.89 2.51 2.51 0 0 0 .08.35c.54 1.88 3.27 4.31 4.83 5.2a7.07 7.07 0 0 1 .64 1.26c0 .12.09.24.12.36v.14a6.09 6.09 0 0 1-.11 3.83c-.06.17-.12.35-.2.52l-1.08 2.43-5.61 15h.06l4.78-.56 15-1.77-3.72-8.66A17.59 17.59 0 0 0 940 177z" fill="#fff"/><path d="M575 866.55l-4-20.39-7-.36-32.24 12-2.51-6.48 1.82 73.58-4 73.63h17l10.48-71.86 1.61-17.35c7.54 11.33 14.45 20.7 14.45 20.7l-4.17 66.52h19.24l7.17-68.38-18-61.55z" fill="#202b33" opacity=".47" style="mix-blend-mode:hard-light"/><path d="M575 866.55l-4-20.39-7-.36-32.24 12-.59-1.52c2.32 9.26 6.44 21.86 12.39 32.63 9.72 17.6 27.05 41.1 27.05 41.1l-4.17 66.52h19.24l7.17-68.38-18-61.55z" fill="#202b33" opacity=".1" style="mix-blend-mode:hard-light"/><path fill="#202b33" opacity=".36" style="mix-blend-mode:hard-light" d="M571.28 808.16l4.97 3.65 13.2-4.97-18.87-21.54.7 22.86z"/><path d="M569.27 1005.49l-2.75 13h33.76c4 0 5.19-4.58 1.65-5.95l-20.32-7.05zM528.27 1006.49l-2 12h28c3.79.26 5.19-4.58 1.65-5.95l-13.32-6.05z" fill="#202b33" opacity=".62" style="mix-blend-mode:hard-light"/><path fill="#fff" d="M570.28 1005.49l.91-9h10.67l-.58 9h-11zM530.28 1006.49h10l.93-8H531l-.72 8z"/><path d="M544.29 719.64a3.78 3.78 0 0 1 3.69 3 3.78 3.78 0 0 0-3.71-3.09 3.51 3.51 0 0 0-3.44 3.78 2.88 2.88 0 0 0 .06.53 2.7 2.7 0 0 1 0-.39 3.51 3.51 0 0 1 3.4-3.83zM548.11 725.32v-1.56l-.07 1.59z" fill="none"/><path d="M548.16 726.86v-1.55h-.12l.07-1.59v-.47a3.66 3.66 0 0 0-3.75-3.64 3.51 3.51 0 0 0-3.44 3.78 2.7 2.7 0 0 0 0 .39c.4 2.09 2.92 5 4.45 6.16.05.12.09.24.13.35a119 119 0 0 0 8.78 14.74c9.44-.89 17-9.35 17.41-19.94.12-3.36.41-6.55-.72-9.4-3.52.31-11.37 1-14.62 1.32-1.35 5.62-3.82 9.04-8.19 9.85z" fill="#fff"/><path d="M570.58 778.3l-14.3-22.14-1.4-.25c-8.14.48-17.21-.36-23.93-2.41l-26.7 41.79L529.44 828l.72.92 13.09 15.79 9.25-5.76-9.12-14.71 28-10.57zm-44.3 17.85l5.46-8.44.59 18.3z" fill="#202b33" opacity=".16" style="mix-blend-mode:hard-light"/><path d="M552.54 694.48c-6.27-.94-11.52.27-15.59 2.82l-2.81 2.15a22.58 22.58 0 0 0-7 16.71s-.2 30.71-3.51 33.92c7.5 5.86 28.94 7.63 41.5 4.33-3.4-.21-7.4-4.45-10.91-9.34a119 119 0 0 1-8.78-14.74c0-.12-.08-.24-.13-.35-1.53-1.16-4-4.07-4.45-6.16a2.88 2.88 0 0 1-.06-.53 3.51 3.51 0 0 1 3.44-3.78 3.82 3.82 0 0 1 3.78 3.78v3.58c4.37-.81 6.82-4.23 8.16-9.81 3.25-.31 11.1-1 14.62-1.32l1.76-.16c1.24-10.35-7.85-19.29-20.02-21.1z" fill="#fff" opacity=".4"/><path d="M1499.67 1006.49l-2.18 12h34.58a3.22 3.22 0 0 0 .95-6.3l-18.57-5.7z" fill="#202b33" opacity=".62" style="mix-blend-mode:hard-light"/><path d="M1492.19 753.47s9 5.16 16.24-.85c5.13-4.27.17-12.21 6-16.24 5.56-3.85 6.14-9.54 1.71-14.53-6.84-7.69-1.71-23.08-14.53-28.21s-15.48 4.72-23.93 6.84c-10.26 2.56-20.91-2.75-26.07 9-4.7 10.68 3.85 15.81 4.7 23.51s-6 14.53 4.27 21.37c6.36 4.24 19.57-1.52 19.57-1.52z" fill="#fff" opacity=".44" style="mix-blend-mode:hard-light"/><path d="M1457.48 834.16l51 2 8.46 88.94-1.45 73.39h-16.87l-3.13-72.33s-13.37-37.67-15-52c-.37 5.33-7.66 124.34-7.66 124.34h-17l-5.34-123.34c-.53-17.71 4-34 7-41z" fill="#202b33" opacity=".62" style="mix-blend-mode:hard-light"/><path d="M1467.52 731.7a2.68 2.68 0 0 0-2.71.34 3.42 3.42 0 0 0-.6 4.39c.84 1.32 4.38 2.68 4.49 3.84.44-1.98-1.22-8.39-1.18-8.57zM1501.1 728.59a2.68 2.68 0 0 1 2.7.43 3.42 3.42 0 0 1 .45 4.41c-.88 1.29-2.73 2.31-2.89 3.46a79.6 79.6 0 0 1-.26-8.3zM1492.3 760.73l-2.86-10.34-8.57.42-3.47 9.96 14.9-.04z" fill="#fff"/><ellipse cx="1484.55" cy="733.12" rx="16.89" ry="20.39" transform="rotate(-3.34 1484.608 733.111)" fill="#fff"/><path fill="none" d="M1511.43 796.25l-1.31 15.56 6.35-.65-5.04-14.91z"/><path d="M1514.48 760.16l-60 2v.06l-8 22.48 46 2.46 1 38L1457 823l.47 11.19 51 2 .55-11.36 27.45-.64zm-3 36.08l5 14.92-6.35.64z" fill="#202b33" opacity=".25" style="mix-blend-mode:hard-light"/><path fill="#fff" d="M1512.1 1006.49h-9.99v-8h10l-.01 8zM1460.34 1008.49a8.85 8.85 0 0 1 8.18 0l1-10h-10.42l1 10z"/><path fill="#202b33" opacity=".25" style="mix-blend-mode:hard-light" d="M1509.03 824.8l-15.56.36V813.5l23-2.34-6.35.65-1.09 12.99z"/><path d="M1473.48 1018.49h-18.23l.21-6.78 4-2.73a8.88 8.88 0 0 1 9.75-.13l4.47 2.86zM1443.47 822.16l50 3-1-38-56-3 7 38z" fill="#202b33" opacity=".62" style="mix-blend-mode:hard-light"/><path d="M1468.5 815.78l-1.91-.16a5.79 5.79 0 0 0-5.11 2.3l-4.14 5.07 14.13.85V819a3.24 3.24 0 0 0-2.97-3.22z" fill="#fff"/><path d="M1385.81 664.39V653.8h-14l-9.18-7a4.55 4.55 0 0 0-5.44 0l-9.55 7h-15.95v11.7l-7.81 5.73v45.67h70.9v-45.67zm-28.57 18.43l-8.42-7.35 3-3.42 5.31 4.63 9.38-8.89 3.12 3.29z" fill="#202b33" opacity=".28" style="mix-blend-mode:hard-light"/><g opacity=".9" style="mix-blend-mode:hard-light" fill="#fff"><path opacity=".44" style="mix-blend-mode:hard-light" d="M1355.76 696.7l-31.84-25.47v45.43l31.84-19.96zM1363.99 696.74l30.23 20.15h.6v-45.66l-30.83 25.51z"/></g><path fill="#fff" d="M1357.24 682.82l-8.42-7.35 2.98-3.42 5.31 4.63 9.38-8.89 3.12 3.29-12.37 11.74z" opacity=".44" style="mix-blend-mode:hard-light"/><path d="M1360 694.06l4 2.68 21.82-18.05V653.8h-54.08v23.67l24 19.22zm-8.17-22l5.31 4.63 9.38-8.89 3.12 3.29-12.38 11.73-8.42-7.35z" fill="#202b33" opacity=".33" style="mix-blend-mode:hard-light"/><path fill="#fff" opacity=".44" style="mix-blend-mode:hard-light" d="M1323.56 716.89l36.41-22.83 34.25 22.83h-70.66z"/><g opacity=".86" style="mix-blend-mode:hard-light" fill="#fff"><path d="M1418.52 711a65.24 65.24 0 1 0-59.13 38.6l65.23-.43a34.9 34.9 0 0 1-6.1-38.17zm-23.7 5.85h-71.26l.36-.23v-45.39l7.81-5.73v-11.7h15.95l9.55-7a4.55 4.55 0 0 1 5.44 0l9.18 7h14v10.59l9 6.84z"/><path d="M1418.52 711a65.24 65.24 0 1 0-59.13 38.6l65.23-.43a34.9 34.9 0 0 1-6.1-38.17zm-23.7 5.85h-71.26l.36-.23v-45.39l7.81-5.73v-11.7h15.95l9.55-7a4.55 4.55 0 0 1 5.44 0l9.18 7h14v10.59l9 6.84z" opacity=".44" style="mix-blend-mode:hard-light"/></g><path fill="#fff" d="M1357.24 682.82l-8.42-7.35 2.98-3.42 5.31 4.63 9.38-8.89 3.12 3.29-12.37 11.74z" opacity=".86" style="mix-blend-mode:hard-light"/><path d="M704.68 727.12c15.19-33.34 54.11-48.07 87.14-33s47.42 54.2 32.23 87.54-54.11 48.07-87.14 33-47.42-54.2-32.23-87.54zm-107.75 77l9.56 26 71.62-28.11 4.32-9.48 4.74-1.89a84.19 84.19 0 0 0 41.67 41.8c42.65 19.5 93.13.4 112.74-42.66s.95-93.76-41.7-113.26-93.13-.4-112.74 42.66a85.84 85.84 0 0 0-4.46 59.26l-4.8 1.72-9.39-4.29z" fill="#fff" fill-rule="evenodd" opacity=".4"/><g opacity=".52" style="mix-blend-mode:hard-light" fill="#202b33" fill-rule="evenodd"><path d="M730.05 811l22.45-6.39 3.92-16.43c-12.34-3.82-21.88-15.41-24.41-29.9-1.69-1.05-3.64-2.12-4.65-3.29a6.33 6.33 0 0 1-.06-8.21 5.07 5.07 0 0 1 3.32-1.51c-1.07-12.69.68-39.59 34.8-39.59 29.68 0 33.62 26.79 33.82 39.51a5 5 0 0 1 4.49 1.94 6.33 6.33 0 0 1-1 8.14 24.67 24.67 0 0 1-4 2.62c-.09.5-.2 1-.32 1.55-2.85 14-12.31 25.14-24.4 28.8l4.21 16.54 20.47 5.9a66.34 66.34 0 0 0 25.42-29c15.19-33.34.8-72.44-32.23-87.54s-71.95-.37-87.14 33A66 66 0 0 0 730.05 811zM799 751.75z"/></g><path fill="#202b33" fill-rule="evenodd" opacity=".62" style="mix-blend-mode:hard-light" d="M596.93 804.02l-53.58 20.2 9.12 14.71-9.25 5.75-12.89-15.55-8.42 3.17 9.85 25.46 74.73-27.73-9.56-26.01z"/><g clip-path="url(#c)"><path fill="#202b33" opacity=".25" style="mix-blend-mode:hard-light" d="M820.37 817.45l14.78 4.92 6.57 116.62-22.99-62.42 1.64-59.12z"/><path d="M722.42 963.62l-1.64 249.65h26.09l26.13-194.9c2.32 35.64 28.24 86.51 28.24 86.51l8.1 105.12h29.85l-3-106.67-15.57-139.94z" fill="#202b33" opacity=".62" style="mix-blend-mode:hard-light"/><path fill="#202b33" opacity=".25" style="mix-blend-mode:hard-light" d="M820.97 817.11l-55.85-16.09-49.27 14.02 6.57 148.58h98.55V817.11z"/><path d="M776.35 724.65c-17.8 32-44.79 27.1-44.79 27.1s-10.78-46.07 33.87-46.07c38.92 0 33.59 46.07 33.59 46.07a5.41 5.41 0 0 1-5.32-4.43 41.83 41.83 0 0 0-7.95-17.25c-4.75-6.26-9.4-5.42-9.4-5.42z" fill="#fff" opacity=".44" style="mix-blend-mode:hard-light"/><path fill="#fff" d="M778.29 805.27L773 784.48l-15.88.76-4.79 20.1 25.96-.07z"/><path fill="#202b33" opacity=".25" style="mix-blend-mode:hard-light" d="M715.85 815.8l-14.78 4.93-4.93 118.26 22.99-62.42-3.28-60.77z"/><path fill="#202b33" opacity=".25" style="mix-blend-mode:hard-light" d="M696.55 939.77l9.99 16.03 18.95-7.57 10.07-79.87-19.71-3.28-19.3 74.69z"/><path d="M719.2 846.06l-3.35 19 19.71 3.28L739.4 853a5.64 5.64 0 0 0-3.37-7.39l-9.51-3.36a5.64 5.64 0 0 0-7.32 3.81zM818.57 846.06l3.35 19-19.71 2.51-3.84-14.57a5.64 5.64 0 0 1 3.37-7.39l9.51-3.36a5.64 5.64 0 0 1 7.32 3.81z" fill="#fff"/><path fill="#202b33" opacity=".25" style="mix-blend-mode:hard-light" d="M841.31 939.77l-10 16.03-18.94-7.57-11.11-79.87 21.35-3.28 18.7 74.69z"/><path d="M803.74 747.13a5 5 0 0 0-4.49-1.94 56.61 56.61 0 0 1-.23 6.55 5.41 5.41 0 0 1-5.32-4.43 41.83 41.83 0 0 0-7.95-17.25c-4.72-6.26-9.4-5.42-9.4-5.42-17.8 32-44.79 27.1-44.79 27.1a50.81 50.81 0 0 1-.93-6.48 5.07 5.07 0 0 0-3.32 1.51 6.33 6.33 0 0 0 .06 8.21c1 1.17 3 2.23 4.65 3.29 3.1 17.79 16.77 31.22 33.21 31.25 16.11 0 29.62-12.82 33.13-30.08.12-.53.23-1 .32-1.55a24.64 24.64 0 0 0 4-2.62 6.33 6.33 0 0 0 1.06-8.14z" fill="#fff"/></g><path d="M704.68 727.12c15.19-33.34 54.11-48.07 87.14-33s47.42 54.2 32.23 87.54-54.11 48.07-87.14 33-47.42-54.2-32.23-87.54zm-107.75 77l9.56 26 71.62-28.11 4.32-9.48 4.74-1.89a84.19 84.19 0 0 0 41.67 41.8c42.65 19.5 93.13.4 112.74-42.66s.95-93.76-41.7-113.26-93.13-.4-112.74 42.66a85.84 85.84 0 0 0-4.46 59.26l-4.8 1.72-9.39-4.29z" fill="#fff" fill-rule="evenodd" opacity=".4"/><path d="M602 833l1.39.88a1.82 1.82 0 0 0 1.54.17l6.24-2.08a1.46 1.46 0 0 0 1.06-1.67l-.54-2.26a2.82 2.82 0 0 0-4-1.58l-5.26 2.4A2.3 2.3 0 0 0 602 833zM543.22 844.68l4.65 7.15a5.42 5.42 0 0 0 4.63 2.17 8.56 8.56 0 0 0 7.37-4.3l1-2.73-3.31 1.23-5.12-9.25z" fill="#fff"/><path fill="#fff" d="M1002.94 93.76h3v22.67h-3zM1018.361 114.047l8.011-8.012 2.122 2.122-8.012 8.011zM979.432 107.83l2.121-2.122 8.323 8.323-2.121 2.121z" opacity=".44"/></g></g></svg>