<svg xmlns="http://www.w3.org/2000/svg" width="2000" height="1125" viewBox="0 0 2000 1125"><defs><clipPath id="a"><path fill="none" d="M783.25 882.83h348v136h-348z"/></clipPath></defs><title>artboard</title><g data-name="Artboard 2" style="isolation:isolate"><path d="M1027.87 378.5l-11.57 4.62a3.23 3.23 0 0 1-4-4.62H661.53v316.25c7.3 16 23.49 45.51 39.09 46.46 0 0-28.73 11.18-39.09-5.81v283.1h70v-270h540v270h70v-640zm-296.33 95h540v75h-540zm541 244h-540v-141h540z" fill="#202b33" opacity=".3" style="mix-blend-mode:hard-light"/><path fill="#202b33" opacity=".33" style="mix-blend-mode:hard-light" d="M731.53 443.5h540v30h-540z"/><path d="M731.53 473.5v75h540v-75zm255 42h-200v-8h200zm234 10h-80v-30h80zM732.53 576.5v141h540v-141zm114 36h70v8h-70zm0 31h160v8h-160zm-40.22-32a20 20 0 1 1-20.07 19.94 20 20 0 0 1 20.07-19.93zm413.22 71h-433v-8h433zM731.53 748.5v270h54v-135h346v135h140v-270zm116 36h70v8h-70zm0 31h160v8h-160zm-40.22-32a20 20 0 1 1-20.07 19.94 20 20 0 0 1 20.07-19.93zm413.22 71h-433v-8h433z" fill="#fff" opacity=".86" style="mix-blend-mode:hard-light"/><path fill="#202b33" opacity=".52" style="mix-blend-mode:hard-light" d="M1140.53 495.5h80v30h-80zM786.53 507.5h200v8h-200zM847.53 784.5h70v8h-70zM847.53 815.5h160v8h-160zM787.53 846.5h433v8h-433z"/><circle cx="807.25" cy="803.51" r="20" transform="rotate(-89.82 807.245 803.513)" fill="#202b33" opacity=".52" style="mix-blend-mode:hard-light"/><path fill="#202b33" opacity=".52" style="mix-blend-mode:hard-light" d="M846.53 612.5h70v8h-70zM846.53 643.5h160v8h-160zM786.53 674.5h433v8h-433z"/><circle cx="806.25" cy="631.51" r="20" transform="rotate(-89.82 806.249 631.51)" fill="#202b33" opacity=".52" style="mix-blend-mode:hard-light"/><g clip-path="url(#a)"><ellipse cx="1078.07" cy="930.45" rx="18.26" ry="18.89" fill="#fff" opacity=".86" style="mix-blend-mode:hard-light"/><path d="M785.53 882.5v195h346v-195zm292.54 29.06c10.09 0 18.26 8.46 18.26 18.89s-8.18 18.89-18.26 18.89-18.26-8.46-18.26-18.89 8.19-18.89 18.26-18.89zm-271 149.7L878.68 983l50.32 54.48 81.51-91.13 97.64 115.15z" fill="#202b33" opacity=".52" style="mix-blend-mode:hard-light"/><path fill="#fff" opacity=".86" style="mix-blend-mode:hard-light" d="M807.08 1060.96l71.6-78.27 50.35 54.48 81.51-91.13 97.64 115.15-301.1-.23z"/></g><path d="M843.53 348.63h-148v-30h148zM1277.53 318.63h30v30h-30zM1217.53 318.63h30v30h-30zM1157.53 318.63h30v30h-30z" fill="#202b33" opacity=".52" style="mix-blend-mode:hard-light"/><path d="M1098 288.63a24.69 24.69 0 0 1-3 .2h-54.58v62l-3.3 1.55 2.29 8.4-9.49 3.79-2.08-7.6 9.28-4.59-13.7 6.45-10.42-70.2h-27.43v.2l-33.74.11a3.28 3.28 0 0 1-1.45-.31H661.53v90h350.7a3.36 3.36 0 0 1 .85-1l14.88-12 13.61-5.43 6.42 10.26-20.44 8.16h314v-90zm-254.46 60h-148v-30h148zm344 0h-30v-30h30zm60 0h-30v-30h30zm60 0h-30v-30h30z" fill="#fff" opacity=".86" style="mix-blend-mode:hard-light"/><path d="M1061.37 256.82v-17l-63-36-28.6 64.41 19 4 16.6-37.41 23 22h-20l15 102 17-8v-62h54.58c14.59 0 26.42-12.83 26.42-27.42v-4.58zM1041.58 360.21l6.42 10.26-31.71 12.66a3.22 3.22 0 0 1-3.21-5.5l14.88-12z" fill="#202b33" opacity=".62" style="mix-blend-mode:hard-light"/><path fill="#fff" d="M1039.36 360.78l-9.49 3.79-2.09-7.6 9.29-4.59 2.29 8.4z"/><path d="M983.61 276.82l2 12-33.74.11a3.22 3.22 0 0 1-1-6.28l18.76-5.83z" fill="#202b33" opacity=".62" style="mix-blend-mode:hard-light"/><path fill="#fff" d="M981.43 276.82h-9.82l3-7.55 10 2-3.18 5.55z"/><path fill="#202b33" opacity=".15" style="mix-blend-mode:hard-light" d="M1061.37 239.82l-63-36-28.6 64.42 19 4 16.6-37.42 23 22h33v-17z"/><path fill="#202b33" opacity=".62" style="mix-blend-mode:hard-light" d="M1043.62 175.82h-16.39l3.9 19h9.14l3.35-19z"/><path d="M1048.78 186.82l-6 7-13.18-4-2-10h14.18a7 7 0 0 1 7 7zM1011.39 199.78l-9.87-3.52a5.43 5.43 0 0 0-7.11 3.89l-1.63 7.06 3.84 1.75 2.16-4.75 9 5z" fill="#fff"/><path d="M1032 162.11s7-8.95 5.41-19.52-22-21-19.45-35.79c1.82-10.45-3.25-22-15.46-22s-11.57 15.73-9.76 22.78c5.19 20.23 25.14 22.08 34.91 35 5.8 7.69 4.35 19.53 4.35 19.53z" fill="#fff" opacity=".2"/><path fill="#202b33" opacity=".25" style="mix-blend-mode:hard-light" d="M1061.38 197.24l13.4 12.87 20.73-40.13 14.5-2.76-48.64 9.26v.45l.01 20.31z"/><path fill="#202b33" opacity=".25" style="mix-blend-mode:hard-light" d="M1111.38 178.04l1.88 14.81-33.48 47.26-18.41-21.8.01 38.51h60l-10-78.78z"/><path fill="#202b33" opacity=".36" style="mix-blend-mode:hard-light" d="M1113.26 192.85l-3.25-25.63-14.5 2.76-20.73 40.13-13.4-12.87-.01-20.47-8.62 12.19-2.97-2.85-8 9 3.6 4.27-9 12.73-24.51-13.49-4.12 10.57 34.65 19.78 13.57-17.06 23.81 28.2 33.48-47.26z"/><path fill="none" d="M1072.49 122.77l-2.55.05h2.56l-.01-.05z"/><path d="M1094.74 108.88c-2.95-4.72-7.46-5.17-12.36-4.13-9.77 2.07-16.38.68-22.29-5.12l-6.17 8.73a9.28 9.28 0 0 0 5.83 14.46h10.19l2.55-.06v.06h.11c.33.89.78 4.81 1 6 1.13 6 3.9 9.57 8.74 10.72v-2a4.16 4.16 0 0 1 4.48-3.78 3.79 3.79 0 0 1 3.59 4.24c-.14 2.22-3.54 5.59-5.48 6.82-1.18 2.06-1 4.65.64 7a13.57 13.57 0 0 0 7 5 15.82 15.82 0 0 1 3-9c4-5 9-13 10-19 1.71-10.05-2.19-19.29-10.83-19.94z" fill="#fff" opacity=".44"/><path d="M1085.61 151.82c-1.6-2.39-1.81-5-.64-7 1.95-1.24 5.34-4.6 5.48-6.82a3.79 3.79 0 0 0-3.59-4.24 4.16 4.16 0 0 0-4.48 3.78v2c-4.83-1.14-7.6-4.71-8.74-10.72-.22-1.19-.67-5.11-1-6h-13c-1.64 3-3.6 11.26-3.69 15-.3 12.09 6.69 23 23.4 22.54l-2.49 13.25 18.12-3.49-2.34-13.26a13.57 13.57 0 0 1-7.03-5.04z" fill="#fff"/><path fill="#202b33" opacity=".52" style="mix-blend-mode:hard-light" d="M1495.03 685.5h58v8h-58zM1495.03 716.5h110v8h-110zM1495.03 747.5h110v8h-110zM447.86 572.02h65.28v8h-65.28zM447.86 601.36h81.87v8h-81.87zM552.76 602.4a21.45 21.45 0 0 1-.33-3.38c0-4.37 1.82-8.41 6.52-12l4-3a7.82 7.82 0 0 0 3.55-6.52c0-3.79-2.72-7.42-8.25-7.42-5.86 0-8.42 4.7-8.42 9.32a8.52 8.52 0 0 0 .33 2.64l-10.39-.41a13.89 13.89 0 0 1-.41-3.71c0-8.91 6.68-17.49 18.89-17.49 12.78 0 19.47 8.08 19.47 16.41 0 6.51-3.3 11.14-8.17 14.6l-3.38 2.39c-2.89 2.06-4.46 4.62-4.46 8v.5zm4.62 5.36a6.62 6.62 0 0 1 6.6 6.6 6.55 6.55 0 0 1-6.6 6.52 6.48 6.48 0 0 1-6.51-6.52 6.55 6.55 0 0 1 6.51-6.6zM635.31 925.21l1.94-78.46a19.17 19.17 0 0 0 .19-2.14h-.14l-41.74 2.19-3.93 19.94-17.9 61.36 6.68 68.73h19.18L595.9 930s6.89-9.34 14.4-20.64l1.61 17.3 10.44 72.19h16.95z"/><path d="M637.54 844.61l-42 2.21-4 19.52-17.87 61.55 6.71 68.94h19.24l-3.71-67.08s17.34-23.5 27.05-41.1 14.53-39.25 14.58-44.04z" fill="#202b33" opacity=".15" style="mix-blend-mode:hard-light"/><path fill="#202b33" opacity=".25" style="mix-blend-mode:hard-light" d="M628.01 753.82l-17.48 2.68-13 26.11-2.48 44.19-.41 13.92-1.2 6.27 46.49-2.7-11.92-90.47z"/><path fill="#202b33" opacity=".16" style="mix-blend-mode:hard-light" d="M629.56 767.59l-1.55-13.77-8.79 1.35-5.9 14.76 4.34 39.8-40.26 21.83 2.16 10.03 56.96-23.17-6.96-50.83z"/><path d="M611.57 592.2c0-47.44-47-71-98.25-71S414 548.08 414 592.2c0 45.49 48.15 71 99.35 71a118.5 118.5 0 0 0 30.32-3.9c8.63 18 40.42 18 40.42 18s-9.27 0-9.27-27.83c0-1.48 0-2.86.12-4.19 19.06-13.05 36.63-24.18 36.63-53.08zM447.86 572h65.28v8h-65.28zm81.87 37.34h-81.87v-8h81.87zm27.64 11.52a6.48 6.48 0 0 1-6.51-6.52 6.55 6.55 0 0 1 6.51-6.6 6.62 6.62 0 0 1 6.6 6.6 6.55 6.55 0 0 1-6.59 6.54zm12.13-29.37l-3.38 2.39c-2.89 2.06-4.46 4.62-4.46 8v.5h-8.91a21.46 21.46 0 0 1-.33-3.39c0-4.37 1.82-8.41 6.52-12l4-3a7.82 7.82 0 0 0 3.55-6.52c0-3.79-2.72-7.42-8.25-7.42-5.86 0-8.42 4.7-8.42 9.32a8.52 8.52 0 0 0 .33 2.64l-10.39-.41a13.89 13.89 0 0 1-.41-3.71c0-8.91 6.68-17.49 18.89-17.49 12.78 0 19.47 8.08 19.47 16.41-.04 6.62-3.34 11.24-8.21 14.7z" fill="#fff" opacity=".86" style="mix-blend-mode:hard-light"/><path d="M658.56 687.79c-4.55-11.69-20.4-10.53-24.2-1.67l-4.95 11.52c-4.07-2.56-9.32-3.76-15.59-2.82-12.17 1.82-21.26 10.75-20.16 21.1l12.17-1.3a16.34 16.34 0 0 1 1.17 2.78c1.35 5.57 7 7.33 11.37 8.14l-.08-1.92a3.78 3.78 0 0 1 3.78-3.78 3.51 3.51 0 0 1 3.44 3.78c0 2.09-2.84 5.43-4.51 6.69a8.58 8.58 0 0 0-.63 6.63c1.13 3.56 5.71 8.86 5.13 6.56s11.14-13.74 12.92-20.93c2.08-8.42-.28-17.32-6.23-22.78 0 0 8.78-4 11.81 2.44l15.84 29.82c8.47 21.74 40.76 9.16 40.76 9.16-18.32-1.11-37.49-41.73-42.04-53.42z" fill="#fff" opacity=".44" style="mix-blend-mode:hard-light"/><path d="M567.67 836.73l9.75-5 2.16 10-6.58 3.99a2.76 2.76 0 0 1-3.86-.9l-2.53-4.23a2.76 2.76 0 0 1 1.06-3.86z" fill="#fff"/><path d="M597.54 1005.83l2.75 13h-33.76c-4 0-5.19-4.58-1.65-5.95l20.32-7.05zM638.54 1006.83l2 12h-31c-3.79.26-5.19-4.58-1.65-5.95l16.32-6.05z" fill="#202b33" opacity=".62" style="mix-blend-mode:hard-light"/><path fill="#fff" d="M596.4 1006l-.91-9h-10.66l.57 9h11zM636.4 1007h-10l-.92-8h10.2l.72 8zM620.4 736.94a8.58 8.58 0 0 1 .63-6.63c1.53-1.16 4.05-4.07 4.45-6.16a2.72 2.72 0 0 0 0-.39 3.51 3.51 0 0 0-3.44-3.78 3.66 3.66 0 0 0-3.75 3.64l.08 1.92v.15c-4.37-.81-10-2.57-11.37-8.14a16.34 16.34 0 0 0-1.19-2.78l-10.26 1a32.43 32.43 0 0 0-.84 9.72c.4 11.23 8.92 20.05 19.14 20l-2.12 10.85 16.29-2.5s-2.44-6.46-4.38-11.38a19.12 19.12 0 0 1-3.24-5.52z"/><path fill="#202b33" opacity=".25" style="mix-blend-mode:hard-light" d="M1479.52 833.55l-4-73.13-32.19-8.87.03.08-16.81.05.04-.18-32.74 8.92-2.72 73.61 1-3.86-1 3.86 6.09 9.75 9.29-3.71.37 8.48h60v-7.28l6.3 2.51 6.09-9.75-.9-3.6 1.15 3.12z"/><path d="M1406.88 848.55l-1 153h15.88l15.93-119.67c1.41 21.7 17.19 52.67 17.19 52.67l4.92 64h18.2l-1.84-64.95-9.47-85.2z" fill="#202b33" opacity=".62" style="mix-blend-mode:hard-light"/><path d="M1441.93 703c-10.84 19.5-27.27 16.5-27.27 16.5s-6.56-28 20.62-28c23.69 0 20.45 28 20.45 28a3.3 3.3 0 0 1-3.24-2.7 25.47 25.47 0 0 0-4.84-10.5c-2.88-3.76-5.72-3.3-5.72-3.3z" fill="#fff" opacity=".44" style="mix-blend-mode:hard-light"/><path d="M1404.92 777l-2 11.58 12 2 2.34-9.35a3.44 3.44 0 0 0-2.05-4.5l-5.79-2a3.44 3.44 0 0 0-4.5 2.27zM1465.43 777l2 11.58-12 1.53-2.34-8.88a3.44 3.44 0 0 1 2.05-4.5l5.79-2a3.44 3.44 0 0 1 4.5 2.27z" fill="#fff"/><path d="M1463.2 1006.83l-2.18 12h34.58a3.22 3.22 0 0 0 .95-6.3l-18.57-5.7z" fill="#202b33" opacity=".62" style="mix-blend-mode:hard-light"/><path fill="#fff" d="M1465.5 1006.83h10.45l-.9-8h-10.45l.9 8z"/><path d="M1422.89 1018.8h-18.23l.21-5.78 4-2.73a8.88 8.88 0 0 1 9.75-.13l4.47 2.86z" fill="#202b33" opacity=".62" style="mix-blend-mode:hard-light"/><path d="M1408.9 1010.29a8.87 8.87 0 0 1 4.86-1.52h.66a8.84 8.84 0 0 1 4.23 1.36l.34.22v-8.83h-10.23v8.82zM1458.6 716.74a3.06 3.06 0 0 0-2.74-1.18 34.47 34.47 0 0 1-.14 4 3.3 3.3 0 0 1-3.24-2.7 25.47 25.47 0 0 0-4.84-10.5c-2.87-3.81-5.72-3.3-5.72-3.3-10.84 19.5-27.27 16.5-27.27 16.5a30.94 30.94 0 0 1-.56-3.94 3.09 3.09 0 0 0-2 .92 3.85 3.85 0 0 0 0 5 13.42 13.42 0 0 0 2.83 2c1.89 10.83 10.21 19 20.22 19 9.81 0 18-7.81 20.17-18.31.07-.32.14-.64.19-.94a15 15 0 0 0 2.46-1.59 3.85 3.85 0 0 0 .64-4.96z" fill="#fff"/><path fill="#202b33" opacity=".25" style="mix-blend-mode:hard-light" d="M1391.13 834.03l6.09 9.75 11.53-4.61 6.13-48.62-12-2-11.75 45.48zM1479.27 834.03l-6.09 9.75-11.53-4.61-6.77-48.62 13-2 11.39 45.48z"/><path fill="#fff" d="M1443.36 751.63l-3.23-12.65-10.66.46-2.92 12.24 16.81-.05z"/><path d="M1371 656.5v127h259v-127zm124 29h58v8h-58zm-59.56 74A39.49 39.49 0 1 1 1475 720a39.48 39.48 0 0 1-39.52 39.5zm169.56-4h-110v-8h110zm0-31h-110v-8h110z" fill="#fff" opacity=".86" style="mix-blend-mode:hard-light"/><g opacity=".52" style="mix-blend-mode:hard-light" fill="#202b33"><path d="M1416 754.38l10.55-2.88v.18l2.44-10.24c-7.12-2.57-12.58-9.41-14.06-17.92a13.42 13.42 0 0 1-2.83-2 3.85 3.85 0 0 1 0-5 3.09 3.09 0 0 1 2-.92c-.65-7.72.4-24.1 21.19-24.1 18.09 0 20.47 16.33 20.59 24.07a3.06 3.06 0 0 1 2.74 1.18 3.85 3.85 0 0 1-.63 5 15 15 0 0 1-2.46 1.59c-.06.31-.12.62-.19.95-1.71 8.4-7.32 15.08-14.51 17.41l2.52 9.91 11.16 3.08a39.49 39.49 0 1 0-38.46-.25zM1455.72 719.55z" opacity=".86" style="mix-blend-mode:hard-light"/></g><path d="M475.92 845.72l2.46 8.82-9.38 3.12-4.68-12.56-9.47-.5a19.17 19.17 0 0 0 .19 2.14l7.92 80.64-10 71.43h19.95l17.89-69.61 5.89-82.39z" fill="#202b33" opacity=".15" style="mix-blend-mode:hard-light"/><path d="M501.61 997.75l-.24-71.19-4.68-79.75-20.77-1.09 2.46 8.82-9.38 3.12-4.68-12.56-9.33-.49h-.14a19.17 19.17 0 0 0 .19 2.14l7.91 81.31-10 70.77h19.95l8.67-33.72-.72 32.8z" fill="#202b33" opacity=".52" style="mix-blend-mode:hard-light"/><path fill="#202b33" opacity=".25" style="mix-blend-mode:hard-light" d="M464 803.06l11.91 42.63 22.3 1.3-1.2-6.27-.4-13.92-2.48-44.19-13.01-26.11-.24-.04-16.88 46.6zM454.93 819.98l-3.21 24.31 12.53.73-9.32-25.04z"/><path d="M480.86 862.75l-2.48-8.21-9.38 3.12 1.75 7.5a2.76 2.76 0 0 0 3.32 2.17l4.8-1.1a2.76 2.76 0 0 0 1.99-3.48zM471.26 736.94a8.58 8.58 0 0 0-.63-6.63c-1.53-1.16-4.05-4.07-4.45-6.16a2.72 2.72 0 0 1 0-.39 3.51 3.51 0 0 1 3.44-3.78c1.8 0 2.91 1 3.75 3.64a18.82 18.82 0 0 0 2 4.44c1.53.07 4.15 0 4.15 0l1.29-13.44 15.29 1.13a41.46 41.46 0 0 1 .84 9.72c-.4 11.23-8.92 20.05-19.14 20l2.12 10.85-16.29-2.5s1.51-5.24 3.24-10.16c1.24-1.48 3.82-4.93 4.39-6.72z" fill="#fff"/><path d="M477.84 694.82a28.3 28.3 0 0 0-3.09-.27 19.78 19.78 0 0 0-6.59.18 9.74 9.74 0 1 0-12.62 9.44 20.65 20.65 0 0 0-1.64 4.08 24.82 24.82 0 0 0-.69 14.33c1.77 7.19 13.49 18.63 12.92 20.93s4-3 5.13-6.56a8.58 8.58 0 0 0-.63-6.63c-1.67-1.26-4.51-4.6-4.51-6.69a3.41 3.41 0 0 1 3.47-3.64c2.09 0 2.89 1.28 3.75 3.64l2 4.44h4.15l1.29-13.44 17.17 1.3c1.15-10.36-7.95-19.3-20.11-21.11z" fill="#fff" opacity=".44" style="mix-blend-mode:hard-light"/><path d="M517.26 1012.88l-20.32-7.05H484.6l-1.4 6.62 1.17.44c3.54 1.36 2.14 6.21-1.65 5.95h32.88c4.01-.01 5.2-4.59 1.66-5.96z" fill="#202b33" opacity=".62" style="mix-blend-mode:hard-light"/><path fill="#fff" d="M485.23 1005.83l-.09-8h10.67l.42 8h-11zM455.86 1007h10l.92-8h-10.21l-.71 8z"/><path fill="#202b33" opacity=".52" style="mix-blend-mode:hard-light" d="M463.65 753.82l17.29 2.51L464 803.06l14.38 51.47-9.42 3.13-19.83-53.24 14.52-50.6z"/><path d="M453.72 1006.83l-2 12h31c3.79.26 5.19-4.58 1.65-5.95l-16.32-6.05z" fill="#202b33" opacity=".62" style="mix-blend-mode:hard-light"/><path d="M1642.5 1032.5h-1285a7 7 0 0 1 0-14h1285a7 7 0 0 1 0 14z" fill="#202b33" opacity=".62" style="mix-blend-mode:hard-light"/></g></svg>