<svg xmlns="http://www.w3.org/2000/svg" width="2000" height="1125" viewBox="0 0 2000 1125"><title>artboard</title><g data-name="Artboard 1" style="isolation:isolate"><path d="M1642.5 1032.5h-1285a7 7 0 0 1 0-14h1285a7 7 0 0 1 0 14z" fill="#202b33" opacity=".62" style="mix-blend-mode:hard-light"/><path d="M1026.78 378.5H660.45v343.73L778 700.15l5.53 29.48L816 902.57l-155.55 29.21v86.72h77v-41h162v41h441v-640zm-291 275V441.59h345.78V653.5zm351.7 365h-162v-80h162zm1-108h-162v-174h162zm190 108h-162v-282h162z" fill="#202b33" opacity=".33" style="mix-blend-mode:hard-light"/><path d="M660.45 288.3v90h350.78c.19-.31 15.56 0 15.56 0h313.67v-90zm182 60h-148v-30h148zm344 0h-30v-30h30zm60 0h-30v-30h30zm60 0h-30v-30h30zM737.5 977.5h162v41h-162z" fill="#fff" opacity=".86" style="mix-blend-mode:hard-light"/><path d="M899.69 916.69h-14.13v-4.39h9.75v-3.44h4.39zm-31.71 0h-17.57v-4.39H868zm-35.15 0h-17.58v-4.39h17.58zm-35.15 0H780.1v-4.39h17.58zm-35.15 0H745v-4.39h17.58zm137.17-25.4h-4.39v-17.58h4.39zm0-35.15h-4.39v-17.58h4.39zm0-35.15h-4.39v-17.58h4.39zm0-35.15h-4.39v-17.58h4.39zm0-35.15h-4.39v-17.58h4.39zm0-35.15h-4.39v-3.84H886v-4.39h13.74zm-31.31-3.84H850.8v-4.39h17.58zm-35.15 0h-17.59v-4.39h17.58zm-35.15 0H780.5v-4.39h17.58z" fill="#fff" opacity=".28" style="mix-blend-mode:hard-light"/><ellipse cx="774.21" cy="793.39" rx="17.96" ry="18.57" fill="none"/><ellipse cx="774.21" cy="863.96" rx="18.12" ry="18.21" fill="none"/><path fill="#202b33" opacity=".33" style="mix-blend-mode:hard-light" d="M926.5 706.5h162v30h-162zM1116.5 706.5h162v30h-162zM737.5 947.5h162v30h-162z"/><path d="M1281.42 652.67H1265v-4.58h11.8v-2h4.58zm-34.73 0h-18.35v-4.58h18.35zm-36.69 0h-18.35v-4.58H1210zm-36.69 0H1155v-4.58h18.35zm-36.69 0h-18.35v-4.58h18.35zm-36.69 0h-18.35v-4.58h18.35zm181.5-24.89h-4.58v-18.35h4.58zm0-36.69h-4.58v-18.35h4.58zm0-36.69h-4.58V536h4.58zm0-36.69h-4.58v-18.36h4.58zm0-36.69h-4.58v-18.36h4.58zm-2.43-34.24h-18.4v-4.58h18.4zm-36.69 0h-18.35v-4.58h18.35zm-36.69 0h-18.35v-4.58h18.35zm-36.69 0h-18.35v-4.58h18.35zm-36.69 0h-18.35v-4.58h18.35zm-36.69 0h-13.91v-4.58h13.91z" fill="#fff" opacity=".28" style="mix-blend-mode:hard-light"/><path d="M735.8 441.59V653.5h345.78V441.59zm293.2 30.64c10.09 0 18.26 8.46 18.26 18.89S1039.12 510 1029 510s-18.26-8.46-18.26-18.89 8.26-18.88 18.26-18.88zm-271 157.4l71.6-78.27 50.4 54.48 81.51-91.13 97.64 115.15zM926.5 736.5v174h162v-174zm77 30h47v7h-47zm0 73h47v7h-47zm-24 30h-32v-31h32zm0-72h-32v-31h32zm86 71h-62v-7h62zm0-72h-62v-7h62zM1116.5 736.5v282h162v-282zm136 248h-111v-7h111zm0-31h-111v-63h111zm0-93h-111v-7h111zm0-31h-111v-63h111zM925.5 938.5v80h162v-80zm51 57h-29v-30h29zm45 0h-29v-30h29zm44 0h-29v-30h29zM783.62 729.62L622 760l32.47 172.94 161.62-30.35zM650.1 803c-1.91-10.19 4.53-20 14.38-21.81s19.4 4.91 21.31 15.11-4.53 20-14.38 21.81S652 813.23 650.1 803zm34.42 84.89a18.42 18.42 0 1 1 14.61-21.48 18.37 18.37 0 0 1-14.61 21.52zm20.72-108.39l46.51-8.73 1.25 6.53-46.53 8.7zm4.25 22.61l62.1-11.66 1.23 6.54-62.1 11.66zm9.16 48.81l46.51-8.73 1.23 6.54-46.51 8.73zm4.25 22.61l62.1-11.66 1.23 6.54-62.1 11.66z" fill="#fff" opacity=".86" style="mix-blend-mode:hard-light"/><path fill="#202b33" opacity=".5" style="mix-blend-mode:soft-light" d="M616.73 730.485l161.314-30.276 5.532 29.475-161.313 30.277z"/><path fill="#202b33" d="M709.502 802.089l62.104-11.667 1.228 6.535-62.104 11.668zM705.26 779.491l46.506-8.737 1.228 6.536-46.506 8.737zM718.666 850.907l46.506-8.737 1.228 6.536-46.506 8.737zM722.91 873.525l62.104-11.667 1.228 6.535-62.104 11.667z" opacity=".52" style="mix-blend-mode:hard-light"/><ellipse cx="667.95" cy="799.69" rx="18.16" ry="18.78" transform="matrix(.98 -.18 .18 .98 -136.1 137)" fill="#202b33" opacity=".52" style="mix-blend-mode:hard-light"/><ellipse cx="681.12" cy="869.83" rx="18.32" ry="18.42" transform="rotate(-10.63 681.411 870.154)" fill="#202b33" opacity=".52" style="mix-blend-mode:hard-light"/><path fill="#202b33" opacity=".33" style="mix-blend-mode:hard-light" d="M616.73 730.485l161.314-30.276 5.532 29.475-161.313 30.277z"/><ellipse cx="1029.04" cy="491.12" rx="18.26" ry="18.89" fill="#202b33" opacity=".62" style="mix-blend-mode:hard-light"/><path fill="#202b33" opacity=".52" style="mix-blend-mode:hard-light" d="M758.04 629.63l71.61-78.27L880 605.84l81.51-91.13 97.64 115.15-301.11-.23zM1003.5 766.5h47v7h-47zM1003.5 839.5h47v7h-47zM947.5 838.5h32v31h-32zM947.5 766.5h32v31h-32zM1003.5 861.5h62v7h-62zM1003.5 789.5h62v7h-62zM1141.5 766.5h111v63h-111zM1141.5 977.5h111v7h-111zM1141.5 890.5h111v63h-111zM1141.5 853.5h111v7h-111zM947.5 965.5h29v30h-29zM992.5 965.5h29v30h-29zM1036.5 965.5h29v30h-29z"/><g opacity=".52" style="mix-blend-mode:luminosity" fill="#202b33"><path d="M1412.216 515.492l110.882-2.013.119 6.55-110.882 2.012zM1412.863 551.145l110.882-2.013.119 6.549-110.882 2.013zM1413.403 581.42l110.881-2.013.12 6.549-110.883 2.013zM1411.615 483.048l62.2-1.129.119 6.55-62.2 1.128z"/></g><path fill="#202b33" opacity=".33" style="mix-blend-mode:hard-light" d="M616.73 730.485l161.314-30.276 5.532 29.475-161.313 30.277z"/><path d="M842.45 348.3h-148v-30h148zM1276.45 318.3h30v30h-30zM1216.45 318.3h30v30h-30zM1156.45 318.3h30v30h-30z" fill="#202b33" opacity=".52" style="mix-blend-mode:hard-light"/><path d="M636.34 774.87l-9.58 5.28-4.59-8.15 8.6-6a2.76 2.76 0 0 1 3.89.77l2.67 4.14a2.76 2.76 0 0 1-.99 3.96z" fill="#fff"/><path d="M633.36 769.9l-9.58 5.28-4.59-8.11 8.6-6a2.76 2.76 0 0 1 3.89.77l2.67 4.14a2.76 2.76 0 0 1-.99 3.92z" fill="#fff"/><path fill="#202b33" opacity=".36" style="mix-blend-mode:hard-light" d="M556 798.96l27.31-3.46 40.47-20.32 2.84 4.7-33.43 23.63-38.95 9.38 1.76-13.93z"/><path fill="#202b33" opacity=".25" style="mix-blend-mode:hard-light" d="M556 798.78l-1.76 13.93-5.17 40.79h-42.79l9.58-89.02 61.73 13.68 41.6-11.28 4.59 8.11-40.47 20.32-41.82 5.31"/><path d="M548.35 853.5h-41c.24-.11.37-.18.15-.18a1.15 1.15 0 0 0-.58.18h-.34s-.07.21-.16.6a.33.33 0 0 0-.08.24 1.12 1.12 0 0 1 .07-.21l-.08.35v-.14.37c-.09.49-.19 1.13-.26 1.92l-19.22 142.13 18.37-.26L525 905.37l-.4-.6a302.21 302.21 0 0 0 19.65 23.85l-4.11 69.9h20.11l6.1-71.8z" fill="#202b33" opacity=".62" style="mix-blend-mode:hard-light"/><path fill="#fff" d="M554.41 1006.5h-10.44l1.06-8h10.61l-1.23 8z"/><path d="M543.13 1006.5l-2.18 12h34a3.31 3.31 0 0 0 1-6.47l-18-5.53z" fill="#202b33" opacity=".62" style="mix-blend-mode:hard-light"/><path fill="#fff" d="M500.42 1006.5h-10.45l1.07-7.87h10.61l-1.23 7.87z"/><path d="M489.14 1006.5l-2.18 12h34a3.31 3.31 0 0 0 1-6.47l-18-5.53z" fill="#202b33" opacity=".62" style="mix-blend-mode:hard-light"/><path d="M543 730.19s-6.8-14.48-17.4-14.53a25.77 25.77 0 0 0-8.92 1.33 7.53 7.53 0 1 0-8.63 8.8l-17.74 47.92 23.76 7.56 4.31-28.74 1.79-11.93c-1.65-1.26-4.31-3.58-4.3-5.66a3.49 3.49 0 0 1 3.44-3.75 3.76 3.76 0 0 1 3.75 3.78l-.18.35z" fill="#fff" opacity=".44" style="mix-blend-mode:hard-light"/><path d="M523.24 735.33l.18-.35a3.76 3.76 0 0 0-3.75-3.78 3.49 3.49 0 0 0-3.44 3.75c0 2.08 2.65 4.39 4.3 5.66l-1.79 11.93-1.83 12.17 10.85 2.46-2.08-9.17c9-.4 16.64-8.1 17.46-18.15a21 21 0 0 0-1.3-9.23z" fill="#fff"/><path d="M506.55 853.5h41.81l18 73.2-6.1 71.8h-20.14l4.11-69.9s-25-26.92-32.86-45.73c-8.15-19.6-4.82-29.37-4.82-29.37z" fill="#202b33" opacity=".19" style="mix-blend-mode:hard-light"/><path d="M1564.54 433.86l-196.67 3.57 3.51 193.6 196.67-3.56zm-152.93 49.23l62.2-1.13.12 6.55-62.2 1.13zm.59 32.45l110.88-2 .12 6.55-110.88 2zm.65 35.64l110.88-2 .12 6.55-110.88 2zm.67 36.82l-.12-6.55 110.88-2 .12 6.55z" fill="#fff" opacity=".86" style="mix-blend-mode:hard-light"/><path fill="#202b33" opacity=".25" style="mix-blend-mode:hard-light" d="M1491.12 700.5l-41.46-.63-39.58-65.46-9.7.72 33.52 84.96 2.45 60.09 45.69 3.93 14.76-57 25.28-37.23 6.96-62.12-10.29-.97-13.18 55.06-14.45 18.65z"/><path d="M1435.81 780.15l46.08 3.76.49 1.65A193 193 0 0 1 1490 828l6.69 102.54h-16.59l-23.59-104.8a72.31 72.31 0 0 1-21.62 31.07l-4.53 3.8-4.94 70.92h-14.92v-78.46z" fill="#202b33" opacity=".62" style="mix-blend-mode:hard-light"/><path d="M1406.37 622.46l3.71 12.17-9.58.62-3.74-9.49a2.68 2.68 0 0 1 1.6-3.51l4.52-1.6a2.68 2.68 0 0 1 3.49 1.81zM1522.17 615.09l-3.71 12.17 10.58.62 2.74-9.49a2.68 2.68 0 0 0-1.6-3.51l-4.52-1.6a2.68 2.68 0 0 0-3.49 1.81z" fill="#fff"/><path d="M1424 939.5l2.18 12h-34.58a3.22 3.22 0 0 1-.95-6.3l18.57-5.7z" fill="#202b33" opacity=".62" style="mix-blend-mode:hard-light"/><path fill="#fff" d="M1421.69 939.5h-10.44l.9-8h10.45l-.91 8zM1492.49 938.5h-9.99v-8h10l-.01 8z"/><path d="M1484 654c-7.67-7.31-23.6-10.88-32.4 3.26-2.95 4.73-2.3 4.63-2.3 4.63l9.64 2.5-2.17 5.11c1.86 0 4.25 1.85 5 1.15a4 4 0 0 1 1.86-4.07 3.4 3.4 0 0 1 4.65 1.71c.94 1.79-.33 5-1.2 6.81l-5.36 14.41 13.9.73a26.47 26.47 0 0 1 6.06-7.1c8.89-7.77 10.15-21.69 2.32-29.14z" fill="#fff" opacity=".44" style="mix-blend-mode:hard-light"/><path fill="#202b33" opacity=".62" style="mix-blend-mode:hard-light" d="M1496.68 950.5h-18.57l2.24-12h14.53l1.8 12z"/><path d="M1476.08 700.63l-2.49-10.37-12-.66 5.34-14.38c.87-1.83 2.13-5 1.2-6.81a3.4 3.4 0 0 0-4.65-1.71 4 4 0 0 0-1.86 4.07c-.73.7-3.12-1.15-5-1.15l2.17-5.11-8-2.07a20.18 20.18 0 0 0-2.92 12.34c.81 9.78 8.21 17.29 17 17.68l-2.11 8z" fill="#fff"/><path fill="#202b33" opacity=".25" style="mix-blend-mode:hard-light" d="M1377.5 950.5h154v68h-154z"/><path fill="#202b33" opacity=".62" style="mix-blend-mode:hard-light" d="M979.35 228.5v60h61v-66.35l18.77 30.88 3.48 33.47h10.75l.47-39.63L1043.1 189l-72.7 7.86-9.03 34.61-7.13-16.11-13.02 7.49 20.21 35.77 17.92-30.12z"/><path fill="#fff" d="M952.7 214.01l.46 1.98-9.6 5.51-5.83-9.91 2.3-1.64 3.51.49.3 4.14 8.86-.57zM1063.39 293.63l.36-7.46 8.92.21.7 7a2.64 2.64 0 0 1-2.54 2.82l-4.71.16a2.64 2.64 0 0 1-2.73-2.73z"/><path d="M999 139.48c-11.07 1.65-19.34 9.78-18.33 19.19l11.07-1.18a14.85 14.85 0 0 1 1.09 2.52c1.22 5.07 6.36 6.67 10.34 7.41l-.07-1.75a3.44 3.44 0 0 1 3.44-3.44 3.19 3.19 0 0 1 3.13 3.44c0 1.9-2.59 4.94-4.1 6.09a6.09 6.09 0 0 0 .33 6c2.09 3.31 5.62 9.16 5.1 7.07s.48-3.41 2.22-6.9 6.58-6.71 8.19-13.24c3.23-13.2-5.52-27.69-22.41-25.21z" fill="#fff" opacity=".44" style="mix-blend-mode:hard-light"/><path d="M1014.9 192.09l-7.64-11.9-1.42-2.27a6.1 6.1 0 0 1-.33-6c1.52-1.15 4.1-4.19 4.1-6.09a3.19 3.19 0 0 0-3.13-3.44 3.44 3.44 0 0 0-3.44 3.44l.07 1.75c-4-.74-9.11-2.34-10.34-7.41a14.85 14.85 0 0 0-1.09-2.52l-8.43.9a20.14 20.14 0 0 0-1.68 8.84c.33 9.32 6.82 16.81 15 18l-1.2 8.66z" fill="#fff"/><path d="M897.79 147.24l4.07 56.8A46.72 46.72 0 0 1 935 185.28h.38l-1.72-24-1.67.1a42.52 42.52 0 0 1-34.16-14.09z" fill="#202b33" opacity=".25" style="mix-blend-mode:hard-light"/><path fill="#202b33" opacity=".62" style="mix-blend-mode:hard-light" d="M892.775 144.95l4.828-.347 4.46 62.23-4.827.347zM951.71 159.93l-18.1 1.3 1.72 24 6.61-.47 2.14 29.8 13.75-1-2.15-30a12 12 0 0 0 8.9-12.49 12 12 0 0 0-12.87-11.14z"/><path fill="#fff" d="M948.98 200.2l-7.67-.63-3.58 12.02 11.16-.6.09-10.79z"/><path fill="#fff" d="M856.95 176.14h22.67v3h-22.67zM869.219 155.697l2.121-2.12 8.012 8.01-2.122 2.122zM868.882 200.473l8.321-8.325 2.122 2.121-8.322 8.324z" opacity=".44"/></g></svg>